<svg width="109" height="31" viewBox="0 0 109 31" fill="none" xmlns="http://www.w3.org/2000/svg">
<mask id="path-1-outside-1_39_3796" maskUnits="userSpaceOnUse" x="-0.00585938" y="0.5" width="109" height="30" fill="black">
<rect fill="white" x="-0.00585938" y="0.5" width="109" height="30"/>
<path d="M27.5793 29.4232C25.7141 29.1517 24.0826 28.3619 22.8368 27.1275C21.7977 26.0979 21.1239 24.9657 20.6272 23.4144C19.8518 20.9922 19.8515 17.8781 20.6265 15.5053C21.3776 13.2058 23.0687 11.2042 25.1384 10.165C28.0046 8.72586 32.0387 8.81627 34.6934 10.3791C37.0824 11.7857 38.5295 14.285 38.9322 17.6996C39.0552 18.7421 38.9754 20.9442 38.7818 21.8531C37.9893 25.5737 35.6814 28.1726 32.3001 29.1521C31.9357 29.2576 31.3707 29.3811 31.0445 29.4264C30.3543 29.5226 28.2474 29.5206 27.5793 29.4232ZM31.6164 29.136C32.9813 28.8172 34.0695 28.3308 35.0421 27.6042C37.4079 25.8369 38.7042 23.127 38.8239 19.6987C38.9419 16.319 37.9228 13.438 35.9524 11.5805C34.3529 10.0726 32.3372 9.34979 29.7317 9.34979C26.9698 9.34979 24.7455 10.2063 23.0342 11.929C21.2011 13.7742 20.2315 16.3483 20.2315 19.3695C20.2315 22.5036 21.1076 25.0337 22.8065 26.8062C23.7431 27.7835 24.6549 28.3697 25.9624 28.8348C26.4247 28.9994 26.7649 29.0784 28.0009 29.3082C28.1067 29.3279 28.8164 29.3315 29.5779 29.3163C30.6088 29.2958 31.1296 29.2496 31.6164 29.136ZM28.6976 28.0425C27.434 27.4692 26.538 25.7264 26.089 22.9688C25.8043 21.2207 25.7774 17.3332 26.0368 15.4283C26.4011 12.7533 27.1706 11.173 28.3688 10.6391C29.1901 10.2732 30.3283 10.4897 31.06 11.151C32.6854 12.6197 33.5057 16.7963 33.1517 21.8002C32.8977 25.391 32.1186 27.3385 30.6654 28.0153C30.1387 28.2608 29.2068 28.2735 28.6976 28.0425ZM30.37 27.9293C30.9149 27.7674 31.5869 27.137 31.9453 26.4516C32.6851 25.0367 33.0155 22.9443 33.0237 19.6218C33.0339 15.4579 32.3813 12.8083 31.0039 11.421C30.4255 10.8383 30.0153 10.6574 29.2758 10.6586C27.6344 10.6612 26.5927 12.3751 26.1812 15.7499C25.992 17.3012 25.991 20.9969 26.1794 22.3532C26.7623 26.5508 28.2677 28.5537 30.37 27.9293ZM60.6172 29.4223C59.854 29.3449 57.5219 28.9567 56.7073 28.7714L56.1438 28.6432L56.1877 25.633C56.2935 18.3853 56.3068 14.4287 56.2383 10.5809C56.1712 6.81158 56.1517 6.41309 56.0063 5.85548C55.8221 5.14898 55.5564 4.65623 55.2367 4.42856C55.1126 4.34015 54.7752 4.21481 54.487 4.15002C53.5292 3.93481 53.5812 3.96928 53.5557 3.53224C53.541 3.28048 53.5682 3.11413 53.6326 3.06312C53.7189 2.99464 61.5751 1.49578 61.8254 1.50001C61.8973 1.50124 61.9074 2.50597 61.8706 5.96435C61.8444 8.41885 61.8411 10.4271 61.8631 10.4271C61.8851 10.4271 62.1722 10.3027 62.5011 10.1508C63.4922 9.69273 64.4058 9.49398 65.7327 9.44766C66.616 9.41689 67.0253 9.4362 67.4785 9.52992C70.4419 10.1432 72.6349 12.5693 73.4012 16.0824C73.6011 16.9988 73.6754 19.2764 73.5428 20.4172C73.4297 21.3895 73.1069 22.6997 72.771 23.5498C71.5035 26.758 68.7843 28.8509 65.1768 29.3948C64.3459 29.52 61.7365 29.5358 60.6172 29.4223ZM64.9634 29.2388C67.3002 28.8883 69.0142 28.0856 70.4658 26.6621C72.564 24.6045 73.5747 21.7005 73.4381 18.1214C73.3678 16.2787 73.067 15.075 72.3034 13.5817C71.269 11.5587 69.4999 10.1396 67.491 9.72174C65.9842 9.40827 64.0455 9.6538 62.5715 10.3447C62.2041 10.5169 61.8524 10.6578 61.7901 10.6578C61.691 10.6578 61.6802 10.0881 61.7054 6.16987L61.7344 1.6819L61.4257 1.74377C61.256 1.77778 59.5248 2.10048 57.5786 2.4608C55.6323 2.82113 53.9641 3.13375 53.8713 3.15545C53.7303 3.18854 53.7056 3.24224 53.7207 3.48323C53.7375 3.75169 53.7596 3.776 54.0432 3.8384C55.0184 4.053 55.192 4.12948 55.5546 4.50412C55.9987 4.96309 56.1994 5.54909 56.331 6.77218C56.4359 7.74675 56.4591 24.5375 56.359 27.016L56.2997 28.4856L57.0929 28.6552C60.0967 29.2977 63.0909 29.5197 64.9634 29.2388ZM62.2192 28.0682C62.0638 28.0519 61.8974 27.9913 61.8496 27.9337C61.7177 27.7748 61.575 17.33 61.6628 14.2742L61.7325 11.8505L62.3479 11.6729C63.2559 11.4112 64.2333 11.4518 64.9263 11.7804C66.3179 12.44 67.2321 14.0694 67.7068 16.7364C67.8615 17.6051 67.8386 20.6223 67.6693 21.6961C67.3156 23.938 66.6721 25.6681 65.7764 26.7861C65.3421 27.3278 64.6209 27.8404 64.057 28.008C63.6933 28.1161 62.9135 28.1416 62.2192 28.0682ZM63.7002 27.8921C64.259 27.786 64.6931 27.5636 65.1593 27.1443C66.3276 26.0939 67.2059 23.9248 67.5514 21.2375C67.692 20.143 67.6731 17.6489 67.5172 16.7354C67.0954 14.2646 66.1889 12.6407 64.8667 11.9869C64.3182 11.7157 64.2337 11.6966 63.5829 11.6966C63.1176 11.6966 62.7174 11.7464 62.377 11.8467L61.8675 11.9968L61.83 14.809C61.7817 18.4114 61.8989 27.43 61.9973 27.6888C62.06 27.8539 62.1291 27.889 62.4406 27.9134C63.1736 27.9711 63.2949 27.9689 63.7002 27.8921ZM82.7331 29.3841C78.9168 28.6957 76.1875 25.9887 75.2957 22.0076C75.181 21.4956 75.1303 20.9226 75.1015 19.8141C75.056 18.0605 75.1986 16.972 75.6511 15.6195C76.5199 13.0226 78.0769 11.1824 80.3386 10.0795C82.7258 8.91545 85.9896 8.8392 88.1022 9.89817C90.4809 11.0905 91.8805 13.4712 92.2356 16.9287C92.2834 17.3943 92.3111 17.9482 92.2972 18.1598L92.2719 18.5445L86.5795 18.5642L80.887 18.584L80.9086 19.2567C80.9589 20.8152 81.2939 22.1937 81.9135 23.392C82.1951 23.9368 82.4193 24.2337 82.9639 24.7836C84.1941 26.0261 85.418 26.507 87.3486 26.507C88.7484 26.507 89.7551 26.2276 90.8079 25.5468C91.1028 25.3561 91.4016 25.2001 91.4719 25.2001C91.6326 25.2001 92.0026 25.6765 92.0026 25.8834C92.0026 26.2226 90.8989 27.3159 89.8224 28.0432C88.9407 28.6389 87.5425 29.1785 86.3301 29.3905C85.481 29.5392 83.5734 29.5358 82.7331 29.3841ZM86.1541 29.2362C87.9365 28.9472 89.6917 28.0916 90.9532 26.8967C91.6442 26.2422 91.8733 25.9264 91.7773 25.7609C91.5209 25.3194 91.532 25.3198 90.8773 25.7221C89.8347 26.3626 89.3121 26.5393 88.0873 26.6649C86.6567 26.8118 85.3371 26.5727 84.1177 25.9455C83.3087 25.5294 82.3394 24.5725 81.8549 23.7119C81.1937 22.5373 80.8349 21.1654 80.728 19.4022C80.6831 18.6619 80.6928 18.4775 80.7798 18.4224C80.839 18.3849 83.4041 18.354 86.5217 18.3534L92.1564 18.3522V18.1295C92.1564 17.6235 91.9903 16.2631 91.8415 15.5501C91.2429 12.6824 89.6627 10.6376 87.4094 9.81507C86.5125 9.48768 85.6641 9.34987 84.5459 9.34987C81.8964 9.34987 79.7326 10.2191 78.0587 11.9559C76.724 13.3407 75.9323 14.8963 75.449 17.0827C75.3033 17.7416 75.2789 18.0842 75.2789 19.468C75.2789 20.8415 75.3038 21.1959 75.445 21.8312C76.342 25.8669 78.9964 28.5246 82.81 29.2054C83.7764 29.3778 85.2006 29.3911 86.1541 29.2362ZM80.7443 17.0623C80.6864 16.9687 80.8299 15.5992 80.9721 14.8897C81.3145 13.1798 81.8627 11.9451 82.6173 11.1848C83.023 10.7759 83.2082 10.6484 83.5391 10.55C83.7669 10.4824 84.0248 10.4272 84.1125 10.4275C84.4654 10.4284 84.8819 10.6086 85.1919 10.8944C86.0239 11.6615 86.5 13.3088 86.5943 15.7472L86.6408 16.9508L85.8408 16.9954C84.2349 17.0849 80.7862 17.1302 80.7443 17.0623ZM85.1484 16.8425L86.4867 16.7959L86.4385 15.845C86.2687 12.4919 85.4483 10.6594 84.1177 10.6609C82.6716 10.6625 81.5159 12.5221 81.0355 15.6208C80.9764 16.0016 80.9275 16.4533 80.9267 16.6245L80.9253 16.9357L82.3676 16.9124C83.161 16.8994 84.4123 16.868 85.1484 16.8425ZM98.1181 29.4588C96.7476 29.3119 94.5665 28.8343 93.8402 28.522L93.4855 28.3696L93.4372 26.6118C93.4105 25.6451 93.3799 24.3523 93.369 23.7392L93.3492 22.6246L93.5618 22.5226C93.6787 22.4666 93.9146 22.4142 94.0862 22.4062L94.3979 22.3917L94.6636 23.0457C95.7 25.5972 96.9155 26.9729 98.5031 27.3913C99.1087 27.551 100.244 27.5524 100.693 27.394C101.948 26.9506 102.637 25.9994 102.643 24.7C102.65 23.1612 101.805 22.4218 98.6098 21.1736C96.6305 20.4002 95.9401 20.0022 95.118 19.1606C94.2311 18.2526 93.8055 17.2191 93.7255 15.7796C93.629 14.0402 94.1732 12.5738 95.3793 11.3243C96.5929 10.0668 98.1685 9.38526 100.315 9.18936C102.205 9.01686 105.106 9.41781 106.626 10.0616L106.904 10.179L106.953 11.7457C106.98 12.6074 107.008 13.7625 107.016 14.3127L107.029 15.3128L106.656 15.4512C106.067 15.6699 106.029 15.6425 105.701 14.7744C104.783 12.3411 103.716 11.1898 102.054 10.8381C101.041 10.6237 100.195 10.8542 99.5798 11.5119C99.1001 12.025 98.9128 12.4806 98.8675 13.2458C98.8183 14.0747 98.9665 14.5229 99.4728 15.0771C100.097 15.7602 101.119 16.3498 103.157 17.2013C105.652 18.2441 106.842 19.1294 107.489 20.4233C107.909 21.2637 108.028 21.9348 107.986 23.2268C107.954 24.1963 107.923 24.3955 107.703 25.0464C106.984 27.1685 105.361 28.5656 102.854 29.2207C102.005 29.4425 101.884 29.4539 100.195 29.4725C99.2219 29.483 98.2873 29.477 98.1181 29.4588ZM101.772 29.2432C105.04 28.7468 107.15 26.9938 107.704 24.3153C107.971 23.022 107.847 21.5838 107.384 20.622C106.736 19.2755 105.64 18.4627 102.926 17.315C100.91 16.4626 99.702 15.74 99.2071 15.0911C98.7983 14.555 98.6654 14.1428 98.6708 13.4279C98.6791 12.3494 99.0878 11.5235 99.8679 11.0085C100.521 10.5774 101.34 10.4722 102.293 10.697C103.444 10.9686 104.31 11.6756 105.093 12.9828C105.341 13.3988 105.853 14.5666 106.102 15.2871C106.141 15.3989 106.186 15.4036 106.454 15.3243C106.623 15.2744 106.786 15.2097 106.815 15.1807C106.844 15.1516 106.842 14.0494 106.81 12.7312L106.753 10.3345L106.474 10.2163C106.003 10.0168 104.774 9.68234 103.964 9.5333C103.355 9.4212 102.819 9.39219 101.387 9.3938C99.6782 9.39565 99.5388 9.40681 98.8329 9.5984C96.7826 10.1548 95.2626 11.3121 94.4683 12.9214C94.0461 13.7767 93.9002 14.4361 93.905 15.467C93.9118 16.9307 94.3106 18.0112 95.1924 18.9551C95.9511 19.7674 96.9377 20.347 98.618 20.9675C99.9402 21.4559 101.305 22.1378 101.823 22.5685C102.127 22.8215 102.366 23.1098 102.544 23.4389C102.797 23.9067 102.81 23.9685 102.81 24.7002C102.81 25.4051 102.79 25.5129 102.566 25.9852C101.982 27.2193 100.812 27.832 99.2807 27.7068C97.1995 27.5366 95.7345 26.16 94.5416 23.254C94.2304 22.4959 94.2092 22.4802 93.7361 22.6601L93.519 22.7427L93.5732 25.4526C93.6215 27.8579 93.6422 28.1737 93.7566 28.2617C94.0986 28.5239 96.3128 29.0496 97.8487 29.2331C99.0412 29.3754 100.87 29.3802 101.772 29.2432ZM1.09637 28.9964C1.03245 28.9706 1.00022 28.7788 1.00022 28.4239C1.00022 27.7862 0.959678 27.8148 2.19256 27.586C3.13827 27.4105 3.47651 27.2311 3.89414 26.6835C4.70377 25.6216 4.87878 23.5772 4.88062 15.1591C4.88232 7.25346 4.73 5.59041 3.89267 4.36854C3.52113 3.82647 2.89503 3.53209 1.84632 3.40652L1.0386 3.3098L1.01645 2.67902L0.994141 2.04831L1.24722 2.00322C1.38646 1.97844 6.27635 1.96798 12.1138 1.97991L22.7274 2.00176L22.7771 2.30953C22.8045 2.47881 22.8494 4.21512 22.8769 6.16794L22.9269 9.71858L22.3798 9.88486C21.556 10.1351 21.561 10.1382 21.1904 9.15743C20.2802 6.74848 19.2365 5.36042 17.8083 4.65947C16.8233 4.17603 16.3679 4.11763 13.5862 4.11763H11.1654L11.1236 4.52158C11.0453 5.27909 10.9219 10.152 10.9227 12.4468L10.9235 14.7358L11.6351 14.7318C12.0265 14.7295 12.7982 14.7008 13.3501 14.6677C14.1795 14.6181 14.4261 14.5741 14.7732 14.4134C15.6259 14.0185 16.206 13.1495 16.5615 11.7345L16.7449 11.004L17.3728 10.9816L18.0006 10.9592V20.205L17.3726 20.1826L16.7445 20.1602L16.5661 19.4292C16.2312 18.0558 15.5865 17.0726 14.7899 16.7201C14.4219 16.5574 13.5116 16.4648 11.7505 16.4113L10.9235 16.3861V18.1228C10.9235 20.0153 11.0276 22.5756 11.1609 23.9651C11.3468 25.9023 11.8417 26.9726 12.7304 27.36C12.9001 27.4339 13.4371 27.5539 13.9236 27.6269C14.4102 27.6998 14.8689 27.7907 14.9429 27.829C15.1306 27.926 15.1417 28.9292 14.9559 29.0005C14.8103 29.0565 1.23499 29.0523 1.09637 28.9964ZM14.9236 28.3933C14.9236 28.1606 14.9029 27.9701 14.8775 27.9701C14.5109 27.9701 12.8029 27.6018 12.5284 27.4635C11.5516 26.9715 11.1 25.8022 10.9248 23.311C10.8002 21.54 10.6763 16.3373 10.7567 16.2569C10.8296 16.1839 14.082 16.3136 14.462 16.4045C15.513 16.6562 16.3231 17.6903 16.7287 19.2979L16.9075 20.0065L17.3771 20.0295L17.8466 20.0523V11.1196H17.3466C16.8792 11.1196 16.8466 11.1308 16.8466 11.2929C16.8466 11.5845 16.5548 12.507 16.2786 13.0888C15.846 14 15.2367 14.5499 14.4619 14.7287C14.2716 14.7726 13.3729 14.8429 12.4648 14.885C11.1842 14.9444 10.7998 14.9405 10.7516 14.868C10.6623 14.7338 10.8658 4.60337 10.9672 4.13263L11.0055 3.9552L13.8299 3.97875L16.6544 4.00237L17.3117 4.23782C18.8341 4.78319 19.9295 5.8968 20.8447 7.82954C21.0504 8.26381 21.314 8.89598 21.4304 9.23461C21.5469 9.57316 21.65 9.86093 21.6595 9.87409C21.669 9.88724 21.9217 9.82361 22.221 9.73266L22.7652 9.56731L22.727 7.05418C22.706 5.67197 22.6687 4.01299 22.6444 3.36766L22.6 2.19427H1.14676L1.16968 2.67486L1.19253 3.15545L1.88486 3.24201C2.80849 3.3575 3.14704 3.45822 3.51897 3.72768C4.08276 4.13617 4.42946 4.73618 4.64777 5.68135C4.98693 7.14967 5.10901 10.4611 5.05255 16.6597C4.99278 23.2093 4.91016 24.5715 4.49277 25.8929C4.14945 26.9797 3.51036 27.5557 2.45495 27.7302C2.16448 27.7782 1.75293 27.8546 1.54046 27.9004L1.15414 27.9831V28.8167H14.9237V28.3933H14.9236ZM39.0166 28.9818C38.9465 28.9372 38.9236 28.7597 38.9397 28.3864L38.9628 27.8547L39.232 27.7975C39.3801 27.7659 39.6982 27.7032 39.9388 27.6583C40.6837 27.5191 41.1117 27.1148 41.3526 26.3226C41.5489 25.6775 41.6353 23.6132 41.6398 19.4679C41.6453 14.3981 41.5397 13.2008 41.0272 12.5222C40.7494 12.1543 40.5492 12.0497 39.8752 11.9203C39.5426 11.8565 39.1926 11.788 39.0974 11.7681C38.9432 11.736 38.9243 11.6858 38.9243 11.3087C38.9243 10.9421 38.9475 10.8758 39.0974 10.8141C39.3276 10.7195 46.9482 9.19583 47.1917 9.19583H47.3816L47.3444 10.3307C47.3238 10.9549 47.2911 11.8638 47.2716 12.3505L47.2361 13.2354L47.5122 12.7374C48.3959 11.1433 49.387 10.1536 50.705 9.54954C51.4285 9.21783 51.9113 9.11888 52.8051 9.11888C53.8651 9.11888 54.9249 9.46482 54.9249 9.81091C54.9249 10.0436 53.0572 14.9797 52.9542 15.0191C52.904 15.0384 52.5393 14.899 52.1438 14.7091C51.319 14.3132 50.5453 14.1197 49.7942 14.1213C48.8588 14.1233 47.8139 14.4679 47.4015 14.9105C47.225 15.0998 47.2242 15.1112 47.1803 17.9382C47.1369 20.7378 47.2301 24.1527 47.3875 25.5261C47.5216 26.6962 47.8325 27.2722 48.4744 27.5405C48.6886 27.6299 50.0435 27.8156 50.4857 27.8161C50.5192 27.8161 50.5365 28.0845 50.5242 28.4124L50.5017 29.0087L44.8092 29.027C41.6782 29.0373 39.0716 29.017 39.0166 28.9818ZM50.3862 28.3999V27.9834L49.79 27.9329C48.4149 27.8169 48.0382 27.6788 47.6771 27.1587C47.1538 26.4049 47.0399 25.0139 47.0399 19.378V14.9792L47.2306 14.7762C47.4712 14.5199 48.2234 14.1625 48.7553 14.0516C49.8353 13.8263 51.2159 14.021 52.2957 14.5506C52.6057 14.7027 52.8722 14.8141 52.8881 14.7982C52.9199 14.7663 54.6935 10.0784 54.7485 9.88063C54.7735 9.79091 54.6713 9.71274 54.373 9.59332C53.7345 9.33771 53.1808 9.25015 52.4665 9.29155C50.556 9.40242 48.8605 10.672 47.6392 12.906C47.4365 13.2769 47.2265 13.5807 47.1727 13.5811C47.0943 13.5816 47.0852 13.1556 47.1273 11.4613L47.18 9.34079L46.9946 9.38449C46.8926 9.4085 45.3553 9.72005 43.5784 10.0768C39.7672 10.8418 39.2375 10.9533 39.1466 11.0095C39.109 11.0327 39.0783 11.1702 39.0783 11.3151C39.0783 11.6056 39.0443 11.5888 39.9103 11.7281C41.1007 11.9196 41.5211 12.5002 41.6986 14.1974C41.9301 16.4104 41.8376 25.0371 41.5698 26.2148C41.4328 26.817 41.079 27.3969 40.7228 27.603C40.5908 27.6794 40.1754 27.8019 39.7997 27.8753L39.1166 28.0087L39.0933 28.4126L39.0701 28.8166H50.3862V28.3999Z"/>
</mask>
<path d="M27.5793 29.4232C25.7141 29.1517 24.0826 28.3619 22.8368 27.1275C21.7977 26.0979 21.1239 24.9657 20.6272 23.4144C19.8518 20.9922 19.8515 17.8781 20.6265 15.5053C21.3776 13.2058 23.0687 11.2042 25.1384 10.165C28.0046 8.72586 32.0387 8.81627 34.6934 10.3791C37.0824 11.7857 38.5295 14.285 38.9322 17.6996C39.0552 18.7421 38.9754 20.9442 38.7818 21.8531C37.9893 25.5737 35.6814 28.1726 32.3001 29.1521C31.9357 29.2576 31.3707 29.3811 31.0445 29.4264C30.3543 29.5226 28.2474 29.5206 27.5793 29.4232ZM31.6164 29.136C32.9813 28.8172 34.0695 28.3308 35.0421 27.6042C37.4079 25.8369 38.7042 23.127 38.8239 19.6987C38.9419 16.319 37.9228 13.438 35.9524 11.5805C34.3529 10.0726 32.3372 9.34979 29.7317 9.34979C26.9698 9.34979 24.7455 10.2063 23.0342 11.929C21.2011 13.7742 20.2315 16.3483 20.2315 19.3695C20.2315 22.5036 21.1076 25.0337 22.8065 26.8062C23.7431 27.7835 24.6549 28.3697 25.9624 28.8348C26.4247 28.9994 26.7649 29.0784 28.0009 29.3082C28.1067 29.3279 28.8164 29.3315 29.5779 29.3163C30.6088 29.2958 31.1296 29.2496 31.6164 29.136ZM28.6976 28.0425C27.434 27.4692 26.538 25.7264 26.089 22.9688C25.8043 21.2207 25.7774 17.3332 26.0368 15.4283C26.4011 12.7533 27.1706 11.173 28.3688 10.6391C29.1901 10.2732 30.3283 10.4897 31.06 11.151C32.6854 12.6197 33.5057 16.7963 33.1517 21.8002C32.8977 25.391 32.1186 27.3385 30.6654 28.0153C30.1387 28.2608 29.2068 28.2735 28.6976 28.0425ZM30.37 27.9293C30.9149 27.7674 31.5869 27.137 31.9453 26.4516C32.6851 25.0367 33.0155 22.9443 33.0237 19.6218C33.0339 15.4579 32.3813 12.8083 31.0039 11.421C30.4255 10.8383 30.0153 10.6574 29.2758 10.6586C27.6344 10.6612 26.5927 12.3751 26.1812 15.7499C25.992 17.3012 25.991 20.9969 26.1794 22.3532C26.7623 26.5508 28.2677 28.5537 30.37 27.9293ZM60.6172 29.4223C59.854 29.3449 57.5219 28.9567 56.7073 28.7714L56.1438 28.6432L56.1877 25.633C56.2935 18.3853 56.3068 14.4287 56.2383 10.5809C56.1712 6.81158 56.1517 6.41309 56.0063 5.85548C55.8221 5.14898 55.5564 4.65623 55.2367 4.42856C55.1126 4.34015 54.7752 4.21481 54.487 4.15002C53.5292 3.93481 53.5812 3.96928 53.5557 3.53224C53.541 3.28048 53.5682 3.11413 53.6326 3.06312C53.7189 2.99464 61.5751 1.49578 61.8254 1.50001C61.8973 1.50124 61.9074 2.50597 61.8706 5.96435C61.8444 8.41885 61.8411 10.4271 61.8631 10.4271C61.8851 10.4271 62.1722 10.3027 62.5011 10.1508C63.4922 9.69273 64.4058 9.49398 65.7327 9.44766C66.616 9.41689 67.0253 9.4362 67.4785 9.52992C70.4419 10.1432 72.6349 12.5693 73.4012 16.0824C73.6011 16.9988 73.6754 19.2764 73.5428 20.4172C73.4297 21.3895 73.1069 22.6997 72.771 23.5498C71.5035 26.758 68.7843 28.8509 65.1768 29.3948C64.3459 29.52 61.7365 29.5358 60.6172 29.4223ZM64.9634 29.2388C67.3002 28.8883 69.0142 28.0856 70.4658 26.6621C72.564 24.6045 73.5747 21.7005 73.4381 18.1214C73.3678 16.2787 73.067 15.075 72.3034 13.5817C71.269 11.5587 69.4999 10.1396 67.491 9.72174C65.9842 9.40827 64.0455 9.6538 62.5715 10.3447C62.2041 10.5169 61.8524 10.6578 61.7901 10.6578C61.691 10.6578 61.6802 10.0881 61.7054 6.16987L61.7344 1.6819L61.4257 1.74377C61.256 1.77778 59.5248 2.10048 57.5786 2.4608C55.6323 2.82113 53.9641 3.13375 53.8713 3.15545C53.7303 3.18854 53.7056 3.24224 53.7207 3.48323C53.7375 3.75169 53.7596 3.776 54.0432 3.8384C55.0184 4.053 55.192 4.12948 55.5546 4.50412C55.9987 4.96309 56.1994 5.54909 56.331 6.77218C56.4359 7.74675 56.4591 24.5375 56.359 27.016L56.2997 28.4856L57.0929 28.6552C60.0967 29.2977 63.0909 29.5197 64.9634 29.2388ZM62.2192 28.0682C62.0638 28.0519 61.8974 27.9913 61.8496 27.9337C61.7177 27.7748 61.575 17.33 61.6628 14.2742L61.7325 11.8505L62.3479 11.6729C63.2559 11.4112 64.2333 11.4518 64.9263 11.7804C66.3179 12.44 67.2321 14.0694 67.7068 16.7364C67.8615 17.6051 67.8386 20.6223 67.6693 21.6961C67.3156 23.938 66.6721 25.6681 65.7764 26.7861C65.3421 27.3278 64.6209 27.8404 64.057 28.008C63.6933 28.1161 62.9135 28.1416 62.2192 28.0682ZM63.7002 27.8921C64.259 27.786 64.6931 27.5636 65.1593 27.1443C66.3276 26.0939 67.2059 23.9248 67.5514 21.2375C67.692 20.143 67.6731 17.6489 67.5172 16.7354C67.0954 14.2646 66.1889 12.6407 64.8667 11.9869C64.3182 11.7157 64.2337 11.6966 63.5829 11.6966C63.1176 11.6966 62.7174 11.7464 62.377 11.8467L61.8675 11.9968L61.83 14.809C61.7817 18.4114 61.8989 27.43 61.9973 27.6888C62.06 27.8539 62.1291 27.889 62.4406 27.9134C63.1736 27.9711 63.2949 27.9689 63.7002 27.8921ZM82.7331 29.3841C78.9168 28.6957 76.1875 25.9887 75.2957 22.0076C75.181 21.4956 75.1303 20.9226 75.1015 19.8141C75.056 18.0605 75.1986 16.972 75.6511 15.6195C76.5199 13.0226 78.0769 11.1824 80.3386 10.0795C82.7258 8.91545 85.9896 8.8392 88.1022 9.89817C90.4809 11.0905 91.8805 13.4712 92.2356 16.9287C92.2834 17.3943 92.3111 17.9482 92.2972 18.1598L92.2719 18.5445L86.5795 18.5642L80.887 18.584L80.9086 19.2567C80.9589 20.8152 81.2939 22.1937 81.9135 23.392C82.1951 23.9368 82.4193 24.2337 82.9639 24.7836C84.1941 26.0261 85.418 26.507 87.3486 26.507C88.7484 26.507 89.7551 26.2276 90.8079 25.5468C91.1028 25.3561 91.4016 25.2001 91.4719 25.2001C91.6326 25.2001 92.0026 25.6765 92.0026 25.8834C92.0026 26.2226 90.8989 27.3159 89.8224 28.0432C88.9407 28.6389 87.5425 29.1785 86.3301 29.3905C85.481 29.5392 83.5734 29.5358 82.7331 29.3841ZM86.1541 29.2362C87.9365 28.9472 89.6917 28.0916 90.9532 26.8967C91.6442 26.2422 91.8733 25.9264 91.7773 25.7609C91.5209 25.3194 91.532 25.3198 90.8773 25.7221C89.8347 26.3626 89.3121 26.5393 88.0873 26.6649C86.6567 26.8118 85.3371 26.5727 84.1177 25.9455C83.3087 25.5294 82.3394 24.5725 81.8549 23.7119C81.1937 22.5373 80.8349 21.1654 80.728 19.4022C80.6831 18.6619 80.6928 18.4775 80.7798 18.4224C80.839 18.3849 83.4041 18.354 86.5217 18.3534L92.1564 18.3522V18.1295C92.1564 17.6235 91.9903 16.2631 91.8415 15.5501C91.2429 12.6824 89.6627 10.6376 87.4094 9.81507C86.5125 9.48768 85.6641 9.34987 84.5459 9.34987C81.8964 9.34987 79.7326 10.2191 78.0587 11.9559C76.724 13.3407 75.9323 14.8963 75.449 17.0827C75.3033 17.7416 75.2789 18.0842 75.2789 19.468C75.2789 20.8415 75.3038 21.1959 75.445 21.8312C76.342 25.8669 78.9964 28.5246 82.81 29.2054C83.7764 29.3778 85.2006 29.3911 86.1541 29.2362ZM80.7443 17.0623C80.6864 16.9687 80.8299 15.5992 80.9721 14.8897C81.3145 13.1798 81.8627 11.9451 82.6173 11.1848C83.023 10.7759 83.2082 10.6484 83.5391 10.55C83.7669 10.4824 84.0248 10.4272 84.1125 10.4275C84.4654 10.4284 84.8819 10.6086 85.1919 10.8944C86.0239 11.6615 86.5 13.3088 86.5943 15.7472L86.6408 16.9508L85.8408 16.9954C84.2349 17.0849 80.7862 17.1302 80.7443 17.0623ZM85.1484 16.8425L86.4867 16.7959L86.4385 15.845C86.2687 12.4919 85.4483 10.6594 84.1177 10.6609C82.6716 10.6625 81.5159 12.5221 81.0355 15.6208C80.9764 16.0016 80.9275 16.4533 80.9267 16.6245L80.9253 16.9357L82.3676 16.9124C83.161 16.8994 84.4123 16.868 85.1484 16.8425ZM98.1181 29.4588C96.7476 29.3119 94.5665 28.8343 93.8402 28.522L93.4855 28.3696L93.4372 26.6118C93.4105 25.6451 93.3799 24.3523 93.369 23.7392L93.3492 22.6246L93.5618 22.5226C93.6787 22.4666 93.9146 22.4142 94.0862 22.4062L94.3979 22.3917L94.6636 23.0457C95.7 25.5972 96.9155 26.9729 98.5031 27.3913C99.1087 27.551 100.244 27.5524 100.693 27.394C101.948 26.9506 102.637 25.9994 102.643 24.7C102.65 23.1612 101.805 22.4218 98.6098 21.1736C96.6305 20.4002 95.9401 20.0022 95.118 19.1606C94.2311 18.2526 93.8055 17.2191 93.7255 15.7796C93.629 14.0402 94.1732 12.5738 95.3793 11.3243C96.5929 10.0668 98.1685 9.38526 100.315 9.18936C102.205 9.01686 105.106 9.41781 106.626 10.0616L106.904 10.179L106.953 11.7457C106.98 12.6074 107.008 13.7625 107.016 14.3127L107.029 15.3128L106.656 15.4512C106.067 15.6699 106.029 15.6425 105.701 14.7744C104.783 12.3411 103.716 11.1898 102.054 10.8381C101.041 10.6237 100.195 10.8542 99.5798 11.5119C99.1001 12.025 98.9128 12.4806 98.8675 13.2458C98.8183 14.0747 98.9665 14.5229 99.4728 15.0771C100.097 15.7602 101.119 16.3498 103.157 17.2013C105.652 18.2441 106.842 19.1294 107.489 20.4233C107.909 21.2637 108.028 21.9348 107.986 23.2268C107.954 24.1963 107.923 24.3955 107.703 25.0464C106.984 27.1685 105.361 28.5656 102.854 29.2207C102.005 29.4425 101.884 29.4539 100.195 29.4725C99.2219 29.483 98.2873 29.477 98.1181 29.4588ZM101.772 29.2432C105.04 28.7468 107.15 26.9938 107.704 24.3153C107.971 23.022 107.847 21.5838 107.384 20.622C106.736 19.2755 105.64 18.4627 102.926 17.315C100.91 16.4626 99.702 15.74 99.2071 15.0911C98.7983 14.555 98.6654 14.1428 98.6708 13.4279C98.6791 12.3494 99.0878 11.5235 99.8679 11.0085C100.521 10.5774 101.34 10.4722 102.293 10.697C103.444 10.9686 104.31 11.6756 105.093 12.9828C105.341 13.3988 105.853 14.5666 106.102 15.2871C106.141 15.3989 106.186 15.4036 106.454 15.3243C106.623 15.2744 106.786 15.2097 106.815 15.1807C106.844 15.1516 106.842 14.0494 106.81 12.7312L106.753 10.3345L106.474 10.2163C106.003 10.0168 104.774 9.68234 103.964 9.5333C103.355 9.4212 102.819 9.39219 101.387 9.3938C99.6782 9.39565 99.5388 9.40681 98.8329 9.5984C96.7826 10.1548 95.2626 11.3121 94.4683 12.9214C94.0461 13.7767 93.9002 14.4361 93.905 15.467C93.9118 16.9307 94.3106 18.0112 95.1924 18.9551C95.9511 19.7674 96.9377 20.347 98.618 20.9675C99.9402 21.4559 101.305 22.1378 101.823 22.5685C102.127 22.8215 102.366 23.1098 102.544 23.4389C102.797 23.9067 102.81 23.9685 102.81 24.7002C102.81 25.4051 102.79 25.5129 102.566 25.9852C101.982 27.2193 100.812 27.832 99.2807 27.7068C97.1995 27.5366 95.7345 26.16 94.5416 23.254C94.2304 22.4959 94.2092 22.4802 93.7361 22.6601L93.519 22.7427L93.5732 25.4526C93.6215 27.8579 93.6422 28.1737 93.7566 28.2617C94.0986 28.5239 96.3128 29.0496 97.8487 29.2331C99.0412 29.3754 100.87 29.3802 101.772 29.2432ZM1.09637 28.9964C1.03245 28.9706 1.00022 28.7788 1.00022 28.4239C1.00022 27.7862 0.959678 27.8148 2.19256 27.586C3.13827 27.4105 3.47651 27.2311 3.89414 26.6835C4.70377 25.6216 4.87878 23.5772 4.88062 15.1591C4.88232 7.25346 4.73 5.59041 3.89267 4.36854C3.52113 3.82647 2.89503 3.53209 1.84632 3.40652L1.0386 3.3098L1.01645 2.67902L0.994141 2.04831L1.24722 2.00322C1.38646 1.97844 6.27635 1.96798 12.1138 1.97991L22.7274 2.00176L22.7771 2.30953C22.8045 2.47881 22.8494 4.21512 22.8769 6.16794L22.9269 9.71858L22.3798 9.88486C21.556 10.1351 21.561 10.1382 21.1904 9.15743C20.2802 6.74848 19.2365 5.36042 17.8083 4.65947C16.8233 4.17603 16.3679 4.11763 13.5862 4.11763H11.1654L11.1236 4.52158C11.0453 5.27909 10.9219 10.152 10.9227 12.4468L10.9235 14.7358L11.6351 14.7318C12.0265 14.7295 12.7982 14.7008 13.3501 14.6677C14.1795 14.6181 14.4261 14.5741 14.7732 14.4134C15.6259 14.0185 16.206 13.1495 16.5615 11.7345L16.7449 11.004L17.3728 10.9816L18.0006 10.9592V20.205L17.3726 20.1826L16.7445 20.1602L16.5661 19.4292C16.2312 18.0558 15.5865 17.0726 14.7899 16.7201C14.4219 16.5574 13.5116 16.4648 11.7505 16.4113L10.9235 16.3861V18.1228C10.9235 20.0153 11.0276 22.5756 11.1609 23.9651C11.3468 25.9023 11.8417 26.9726 12.7304 27.36C12.9001 27.4339 13.4371 27.5539 13.9236 27.6269C14.4102 27.6998 14.8689 27.7907 14.9429 27.829C15.1306 27.926 15.1417 28.9292 14.9559 29.0005C14.8103 29.0565 1.23499 29.0523 1.09637 28.9964ZM14.9236 28.3933C14.9236 28.1606 14.9029 27.9701 14.8775 27.9701C14.5109 27.9701 12.8029 27.6018 12.5284 27.4635C11.5516 26.9715 11.1 25.8022 10.9248 23.311C10.8002 21.54 10.6763 16.3373 10.7567 16.2569C10.8296 16.1839 14.082 16.3136 14.462 16.4045C15.513 16.6562 16.3231 17.6903 16.7287 19.2979L16.9075 20.0065L17.3771 20.0295L17.8466 20.0523V11.1196H17.3466C16.8792 11.1196 16.8466 11.1308 16.8466 11.2929C16.8466 11.5845 16.5548 12.507 16.2786 13.0888C15.846 14 15.2367 14.5499 14.4619 14.7287C14.2716 14.7726 13.3729 14.8429 12.4648 14.885C11.1842 14.9444 10.7998 14.9405 10.7516 14.868C10.6623 14.7338 10.8658 4.60337 10.9672 4.13263L11.0055 3.9552L13.8299 3.97875L16.6544 4.00237L17.3117 4.23782C18.8341 4.78319 19.9295 5.8968 20.8447 7.82954C21.0504 8.26381 21.314 8.89598 21.4304 9.23461C21.5469 9.57316 21.65 9.86093 21.6595 9.87409C21.669 9.88724 21.9217 9.82361 22.221 9.73266L22.7652 9.56731L22.727 7.05418C22.706 5.67197 22.6687 4.01299 22.6444 3.36766L22.6 2.19427H1.14676L1.16968 2.67486L1.19253 3.15545L1.88486 3.24201C2.80849 3.3575 3.14704 3.45822 3.51897 3.72768C4.08276 4.13617 4.42946 4.73618 4.64777 5.68135C4.98693 7.14967 5.10901 10.4611 5.05255 16.6597C4.99278 23.2093 4.91016 24.5715 4.49277 25.8929C4.14945 26.9797 3.51036 27.5557 2.45495 27.7302C2.16448 27.7782 1.75293 27.8546 1.54046 27.9004L1.15414 27.9831V28.8167H14.9237V28.3933H14.9236ZM39.0166 28.9818C38.9465 28.9372 38.9236 28.7597 38.9397 28.3864L38.9628 27.8547L39.232 27.7975C39.3801 27.7659 39.6982 27.7032 39.9388 27.6583C40.6837 27.5191 41.1117 27.1148 41.3526 26.3226C41.5489 25.6775 41.6353 23.6132 41.6398 19.4679C41.6453 14.3981 41.5397 13.2008 41.0272 12.5222C40.7494 12.1543 40.5492 12.0497 39.8752 11.9203C39.5426 11.8565 39.1926 11.788 39.0974 11.7681C38.9432 11.736 38.9243 11.6858 38.9243 11.3087C38.9243 10.9421 38.9475 10.8758 39.0974 10.8141C39.3276 10.7195 46.9482 9.19583 47.1917 9.19583H47.3816L47.3444 10.3307C47.3238 10.9549 47.2911 11.8638 47.2716 12.3505L47.2361 13.2354L47.5122 12.7374C48.3959 11.1433 49.387 10.1536 50.705 9.54954C51.4285 9.21783 51.9113 9.11888 52.8051 9.11888C53.8651 9.11888 54.9249 9.46482 54.9249 9.81091C54.9249 10.0436 53.0572 14.9797 52.9542 15.0191C52.904 15.0384 52.5393 14.899 52.1438 14.7091C51.319 14.3132 50.5453 14.1197 49.7942 14.1213C48.8588 14.1233 47.8139 14.4679 47.4015 14.9105C47.225 15.0998 47.2242 15.1112 47.1803 17.9382C47.1369 20.7378 47.2301 24.1527 47.3875 25.5261C47.5216 26.6962 47.8325 27.2722 48.4744 27.5405C48.6886 27.6299 50.0435 27.8156 50.4857 27.8161C50.5192 27.8161 50.5365 28.0845 50.5242 28.4124L50.5017 29.0087L44.8092 29.027C41.6782 29.0373 39.0716 29.017 39.0166 28.9818ZM50.3862 28.3999V27.9834L49.79 27.9329C48.4149 27.8169 48.0382 27.6788 47.6771 27.1587C47.1538 26.4049 47.0399 25.0139 47.0399 19.378V14.9792L47.2306 14.7762C47.4712 14.5199 48.2234 14.1625 48.7553 14.0516C49.8353 13.8263 51.2159 14.021 52.2957 14.5506C52.6057 14.7027 52.8722 14.8141 52.8881 14.7982C52.9199 14.7663 54.6935 10.0784 54.7485 9.88063C54.7735 9.79091 54.6713 9.71274 54.373 9.59332C53.7345 9.33771 53.1808 9.25015 52.4665 9.29155C50.556 9.40242 48.8605 10.672 47.6392 12.906C47.4365 13.2769 47.2265 13.5807 47.1727 13.5811C47.0943 13.5816 47.0852 13.1556 47.1273 11.4613L47.18 9.34079L46.9946 9.38449C46.8926 9.4085 45.3553 9.72005 43.5784 10.0768C39.7672 10.8418 39.2375 10.9533 39.1466 11.0095C39.109 11.0327 39.0783 11.1702 39.0783 11.3151C39.0783 11.6056 39.0443 11.5888 39.9103 11.7281C41.1007 11.9196 41.5211 12.5002 41.6986 14.1974C41.9301 16.4104 41.8376 25.0371 41.5698 26.2148C41.4328 26.817 41.079 27.3969 40.7228 27.603C40.5908 27.6794 40.1754 27.8019 39.7997 27.8753L39.1166 28.0087L39.0933 28.4126L39.0701 28.8166H50.3862V28.3999Z" fill="#4B4B4B"/>
<path d="M27.5793 29.4232C25.7141 29.1517 24.0826 28.3619 22.8368 27.1275C21.7977 26.0979 21.1239 24.9657 20.6272 23.4144C19.8518 20.9922 19.8515 17.8781 20.6265 15.5053C21.3776 13.2058 23.0687 11.2042 25.1384 10.165C28.0046 8.72586 32.0387 8.81627 34.6934 10.3791C37.0824 11.7857 38.5295 14.285 38.9322 17.6996C39.0552 18.7421 38.9754 20.9442 38.7818 21.8531C37.9893 25.5737 35.6814 28.1726 32.3001 29.1521C31.9357 29.2576 31.3707 29.3811 31.0445 29.4264C30.3543 29.5226 28.2474 29.5206 27.5793 29.4232ZM31.6164 29.136C32.9813 28.8172 34.0695 28.3308 35.0421 27.6042C37.4079 25.8369 38.7042 23.127 38.8239 19.6987C38.9419 16.319 37.9228 13.438 35.9524 11.5805C34.3529 10.0726 32.3372 9.34979 29.7317 9.34979C26.9698 9.34979 24.7455 10.2063 23.0342 11.929C21.2011 13.7742 20.2315 16.3483 20.2315 19.3695C20.2315 22.5036 21.1076 25.0337 22.8065 26.8062C23.7431 27.7835 24.6549 28.3697 25.9624 28.8348C26.4247 28.9994 26.7649 29.0784 28.0009 29.3082C28.1067 29.3279 28.8164 29.3315 29.5779 29.3163C30.6088 29.2958 31.1296 29.2496 31.6164 29.136ZM28.6976 28.0425C27.434 27.4692 26.538 25.7264 26.089 22.9688C25.8043 21.2207 25.7774 17.3332 26.0368 15.4283C26.4011 12.7533 27.1706 11.173 28.3688 10.6391C29.1901 10.2732 30.3283 10.4897 31.06 11.151C32.6854 12.6197 33.5057 16.7963 33.1517 21.8002C32.8977 25.391 32.1186 27.3385 30.6654 28.0153C30.1387 28.2608 29.2068 28.2735 28.6976 28.0425ZM30.37 27.9293C30.9149 27.7674 31.5869 27.137 31.9453 26.4516C32.6851 25.0367 33.0155 22.9443 33.0237 19.6218C33.0339 15.4579 32.3813 12.8083 31.0039 11.421C30.4255 10.8383 30.0153 10.6574 29.2758 10.6586C27.6344 10.6612 26.5927 12.3751 26.1812 15.7499C25.992 17.3012 25.991 20.9969 26.1794 22.3532C26.7623 26.5508 28.2677 28.5537 30.37 27.9293ZM60.6172 29.4223C59.854 29.3449 57.5219 28.9567 56.7073 28.7714L56.1438 28.6432L56.1877 25.633C56.2935 18.3853 56.3068 14.4287 56.2383 10.5809C56.1712 6.81158 56.1517 6.41309 56.0063 5.85548C55.8221 5.14898 55.5564 4.65623 55.2367 4.42856C55.1126 4.34015 54.7752 4.21481 54.487 4.15002C53.5292 3.93481 53.5812 3.96928 53.5557 3.53224C53.541 3.28048 53.5682 3.11413 53.6326 3.06312C53.7189 2.99464 61.5751 1.49578 61.8254 1.50001C61.8973 1.50124 61.9074 2.50597 61.8706 5.96435C61.8444 8.41885 61.8411 10.4271 61.8631 10.4271C61.8851 10.4271 62.1722 10.3027 62.5011 10.1508C63.4922 9.69273 64.4058 9.49398 65.7327 9.44766C66.616 9.41689 67.0253 9.4362 67.4785 9.52992C70.4419 10.1432 72.6349 12.5693 73.4012 16.0824C73.6011 16.9988 73.6754 19.2764 73.5428 20.4172C73.4297 21.3895 73.1069 22.6997 72.771 23.5498C71.5035 26.758 68.7843 28.8509 65.1768 29.3948C64.3459 29.52 61.7365 29.5358 60.6172 29.4223ZM64.9634 29.2388C67.3002 28.8883 69.0142 28.0856 70.4658 26.6621C72.564 24.6045 73.5747 21.7005 73.4381 18.1214C73.3678 16.2787 73.067 15.075 72.3034 13.5817C71.269 11.5587 69.4999 10.1396 67.491 9.72174C65.9842 9.40827 64.0455 9.6538 62.5715 10.3447C62.2041 10.5169 61.8524 10.6578 61.7901 10.6578C61.691 10.6578 61.6802 10.0881 61.7054 6.16987L61.7344 1.6819L61.4257 1.74377C61.256 1.77778 59.5248 2.10048 57.5786 2.4608C55.6323 2.82113 53.9641 3.13375 53.8713 3.15545C53.7303 3.18854 53.7056 3.24224 53.7207 3.48323C53.7375 3.75169 53.7596 3.776 54.0432 3.8384C55.0184 4.053 55.192 4.12948 55.5546 4.50412C55.9987 4.96309 56.1994 5.54909 56.331 6.77218C56.4359 7.74675 56.4591 24.5375 56.359 27.016L56.2997 28.4856L57.0929 28.6552C60.0967 29.2977 63.0909 29.5197 64.9634 29.2388ZM62.2192 28.0682C62.0638 28.0519 61.8974 27.9913 61.8496 27.9337C61.7177 27.7748 61.575 17.33 61.6628 14.2742L61.7325 11.8505L62.3479 11.6729C63.2559 11.4112 64.2333 11.4518 64.9263 11.7804C66.3179 12.44 67.2321 14.0694 67.7068 16.7364C67.8615 17.6051 67.8386 20.6223 67.6693 21.6961C67.3156 23.938 66.6721 25.6681 65.7764 26.7861C65.3421 27.3278 64.6209 27.8404 64.057 28.008C63.6933 28.1161 62.9135 28.1416 62.2192 28.0682ZM63.7002 27.8921C64.259 27.786 64.6931 27.5636 65.1593 27.1443C66.3276 26.0939 67.2059 23.9248 67.5514 21.2375C67.692 20.143 67.6731 17.6489 67.5172 16.7354C67.0954 14.2646 66.1889 12.6407 64.8667 11.9869C64.3182 11.7157 64.2337 11.6966 63.5829 11.6966C63.1176 11.6966 62.7174 11.7464 62.377 11.8467L61.8675 11.9968L61.83 14.809C61.7817 18.4114 61.8989 27.43 61.9973 27.6888C62.06 27.8539 62.1291 27.889 62.4406 27.9134C63.1736 27.9711 63.2949 27.9689 63.7002 27.8921ZM82.7331 29.3841C78.9168 28.6957 76.1875 25.9887 75.2957 22.0076C75.181 21.4956 75.1303 20.9226 75.1015 19.8141C75.056 18.0605 75.1986 16.972 75.6511 15.6195C76.5199 13.0226 78.0769 11.1824 80.3386 10.0795C82.7258 8.91545 85.9896 8.8392 88.1022 9.89817C90.4809 11.0905 91.8805 13.4712 92.2356 16.9287C92.2834 17.3943 92.3111 17.9482 92.2972 18.1598L92.2719 18.5445L86.5795 18.5642L80.887 18.584L80.9086 19.2567C80.9589 20.8152 81.2939 22.1937 81.9135 23.392C82.1951 23.9368 82.4193 24.2337 82.9639 24.7836C84.1941 26.0261 85.418 26.507 87.3486 26.507C88.7484 26.507 89.7551 26.2276 90.8079 25.5468C91.1028 25.3561 91.4016 25.2001 91.4719 25.2001C91.6326 25.2001 92.0026 25.6765 92.0026 25.8834C92.0026 26.2226 90.8989 27.3159 89.8224 28.0432C88.9407 28.6389 87.5425 29.1785 86.3301 29.3905C85.481 29.5392 83.5734 29.5358 82.7331 29.3841ZM86.1541 29.2362C87.9365 28.9472 89.6917 28.0916 90.9532 26.8967C91.6442 26.2422 91.8733 25.9264 91.7773 25.7609C91.5209 25.3194 91.532 25.3198 90.8773 25.7221C89.8347 26.3626 89.3121 26.5393 88.0873 26.6649C86.6567 26.8118 85.3371 26.5727 84.1177 25.9455C83.3087 25.5294 82.3394 24.5725 81.8549 23.7119C81.1937 22.5373 80.8349 21.1654 80.728 19.4022C80.6831 18.6619 80.6928 18.4775 80.7798 18.4224C80.839 18.3849 83.4041 18.354 86.5217 18.3534L92.1564 18.3522V18.1295C92.1564 17.6235 91.9903 16.2631 91.8415 15.5501C91.2429 12.6824 89.6627 10.6376 87.4094 9.81507C86.5125 9.48768 85.6641 9.34987 84.5459 9.34987C81.8964 9.34987 79.7326 10.2191 78.0587 11.9559C76.724 13.3407 75.9323 14.8963 75.449 17.0827C75.3033 17.7416 75.2789 18.0842 75.2789 19.468C75.2789 20.8415 75.3038 21.1959 75.445 21.8312C76.342 25.8669 78.9964 28.5246 82.81 29.2054C83.7764 29.3778 85.2006 29.3911 86.1541 29.2362ZM80.7443 17.0623C80.6864 16.9687 80.8299 15.5992 80.9721 14.8897C81.3145 13.1798 81.8627 11.9451 82.6173 11.1848C83.023 10.7759 83.2082 10.6484 83.5391 10.55C83.7669 10.4824 84.0248 10.4272 84.1125 10.4275C84.4654 10.4284 84.8819 10.6086 85.1919 10.8944C86.0239 11.6615 86.5 13.3088 86.5943 15.7472L86.6408 16.9508L85.8408 16.9954C84.2349 17.0849 80.7862 17.1302 80.7443 17.0623ZM85.1484 16.8425L86.4867 16.7959L86.4385 15.845C86.2687 12.4919 85.4483 10.6594 84.1177 10.6609C82.6716 10.6625 81.5159 12.5221 81.0355 15.6208C80.9764 16.0016 80.9275 16.4533 80.9267 16.6245L80.9253 16.9357L82.3676 16.9124C83.161 16.8994 84.4123 16.868 85.1484 16.8425ZM98.1181 29.4588C96.7476 29.3119 94.5665 28.8343 93.8402 28.522L93.4855 28.3696L93.4372 26.6118C93.4105 25.6451 93.3799 24.3523 93.369 23.7392L93.3492 22.6246L93.5618 22.5226C93.6787 22.4666 93.9146 22.4142 94.0862 22.4062L94.3979 22.3917L94.6636 23.0457C95.7 25.5972 96.9155 26.9729 98.5031 27.3913C99.1087 27.551 100.244 27.5524 100.693 27.394C101.948 26.9506 102.637 25.9994 102.643 24.7C102.65 23.1612 101.805 22.4218 98.6098 21.1736C96.6305 20.4002 95.9401 20.0022 95.118 19.1606C94.2311 18.2526 93.8055 17.2191 93.7255 15.7796C93.629 14.0402 94.1732 12.5738 95.3793 11.3243C96.5929 10.0668 98.1685 9.38526 100.315 9.18936C102.205 9.01686 105.106 9.41781 106.626 10.0616L106.904 10.179L106.953 11.7457C106.98 12.6074 107.008 13.7625 107.016 14.3127L107.029 15.3128L106.656 15.4512C106.067 15.6699 106.029 15.6425 105.701 14.7744C104.783 12.3411 103.716 11.1898 102.054 10.8381C101.041 10.6237 100.195 10.8542 99.5798 11.5119C99.1001 12.025 98.9128 12.4806 98.8675 13.2458C98.8183 14.0747 98.9665 14.5229 99.4728 15.0771C100.097 15.7602 101.119 16.3498 103.157 17.2013C105.652 18.2441 106.842 19.1294 107.489 20.4233C107.909 21.2637 108.028 21.9348 107.986 23.2268C107.954 24.1963 107.923 24.3955 107.703 25.0464C106.984 27.1685 105.361 28.5656 102.854 29.2207C102.005 29.4425 101.884 29.4539 100.195 29.4725C99.2219 29.483 98.2873 29.477 98.1181 29.4588ZM101.772 29.2432C105.04 28.7468 107.15 26.9938 107.704 24.3153C107.971 23.022 107.847 21.5838 107.384 20.622C106.736 19.2755 105.64 18.4627 102.926 17.315C100.91 16.4626 99.702 15.74 99.2071 15.0911C98.7983 14.555 98.6654 14.1428 98.6708 13.4279C98.6791 12.3494 99.0878 11.5235 99.8679 11.0085C100.521 10.5774 101.34 10.4722 102.293 10.697C103.444 10.9686 104.31 11.6756 105.093 12.9828C105.341 13.3988 105.853 14.5666 106.102 15.2871C106.141 15.3989 106.186 15.4036 106.454 15.3243C106.623 15.2744 106.786 15.2097 106.815 15.1807C106.844 15.1516 106.842 14.0494 106.81 12.7312L106.753 10.3345L106.474 10.2163C106.003 10.0168 104.774 9.68234 103.964 9.5333C103.355 9.4212 102.819 9.39219 101.387 9.3938C99.6782 9.39565 99.5388 9.40681 98.8329 9.5984C96.7826 10.1548 95.2626 11.3121 94.4683 12.9214C94.0461 13.7767 93.9002 14.4361 93.905 15.467C93.9118 16.9307 94.3106 18.0112 95.1924 18.9551C95.9511 19.7674 96.9377 20.347 98.618 20.9675C99.9402 21.4559 101.305 22.1378 101.823 22.5685C102.127 22.8215 102.366 23.1098 102.544 23.4389C102.797 23.9067 102.81 23.9685 102.81 24.7002C102.81 25.4051 102.79 25.5129 102.566 25.9852C101.982 27.2193 100.812 27.832 99.2807 27.7068C97.1995 27.5366 95.7345 26.16 94.5416 23.254C94.2304 22.4959 94.2092 22.4802 93.7361 22.6601L93.519 22.7427L93.5732 25.4526C93.6215 27.8579 93.6422 28.1737 93.7566 28.2617C94.0986 28.5239 96.3128 29.0496 97.8487 29.2331C99.0412 29.3754 100.87 29.3802 101.772 29.2432ZM1.09637 28.9964C1.03245 28.9706 1.00022 28.7788 1.00022 28.4239C1.00022 27.7862 0.959678 27.8148 2.19256 27.586C3.13827 27.4105 3.47651 27.2311 3.89414 26.6835C4.70377 25.6216 4.87878 23.5772 4.88062 15.1591C4.88232 7.25346 4.73 5.59041 3.89267 4.36854C3.52113 3.82647 2.89503 3.53209 1.84632 3.40652L1.0386 3.3098L1.01645 2.67902L0.994141 2.04831L1.24722 2.00322C1.38646 1.97844 6.27635 1.96798 12.1138 1.97991L22.7274 2.00176L22.7771 2.30953C22.8045 2.47881 22.8494 4.21512 22.8769 6.16794L22.9269 9.71858L22.3798 9.88486C21.556 10.1351 21.561 10.1382 21.1904 9.15743C20.2802 6.74848 19.2365 5.36042 17.8083 4.65947C16.8233 4.17603 16.3679 4.11763 13.5862 4.11763H11.1654L11.1236 4.52158C11.0453 5.27909 10.9219 10.152 10.9227 12.4468L10.9235 14.7358L11.6351 14.7318C12.0265 14.7295 12.7982 14.7008 13.3501 14.6677C14.1795 14.6181 14.4261 14.5741 14.7732 14.4134C15.6259 14.0185 16.206 13.1495 16.5615 11.7345L16.7449 11.004L17.3728 10.9816L18.0006 10.9592V20.205L17.3726 20.1826L16.7445 20.1602L16.5661 19.4292C16.2312 18.0558 15.5865 17.0726 14.7899 16.7201C14.4219 16.5574 13.5116 16.4648 11.7505 16.4113L10.9235 16.3861V18.1228C10.9235 20.0153 11.0276 22.5756 11.1609 23.9651C11.3468 25.9023 11.8417 26.9726 12.7304 27.36C12.9001 27.4339 13.4371 27.5539 13.9236 27.6269C14.4102 27.6998 14.8689 27.7907 14.9429 27.829C15.1306 27.926 15.1417 28.9292 14.9559 29.0005C14.8103 29.0565 1.23499 29.0523 1.09637 28.9964ZM14.9236 28.3933C14.9236 28.1606 14.9029 27.9701 14.8775 27.9701C14.5109 27.9701 12.8029 27.6018 12.5284 27.4635C11.5516 26.9715 11.1 25.8022 10.9248 23.311C10.8002 21.54 10.6763 16.3373 10.7567 16.2569C10.8296 16.1839 14.082 16.3136 14.462 16.4045C15.513 16.6562 16.3231 17.6903 16.7287 19.2979L16.9075 20.0065L17.3771 20.0295L17.8466 20.0523V11.1196H17.3466C16.8792 11.1196 16.8466 11.1308 16.8466 11.2929C16.8466 11.5845 16.5548 12.507 16.2786 13.0888C15.846 14 15.2367 14.5499 14.4619 14.7287C14.2716 14.7726 13.3729 14.8429 12.4648 14.885C11.1842 14.9444 10.7998 14.9405 10.7516 14.868C10.6623 14.7338 10.8658 4.60337 10.9672 4.13263L11.0055 3.9552L13.8299 3.97875L16.6544 4.00237L17.3117 4.23782C18.8341 4.78319 19.9295 5.8968 20.8447 7.82954C21.0504 8.26381 21.314 8.89598 21.4304 9.23461C21.5469 9.57316 21.65 9.86093 21.6595 9.87409C21.669 9.88724 21.9217 9.82361 22.221 9.73266L22.7652 9.56731L22.727 7.05418C22.706 5.67197 22.6687 4.01299 22.6444 3.36766L22.6 2.19427H1.14676L1.16968 2.67486L1.19253 3.15545L1.88486 3.24201C2.80849 3.3575 3.14704 3.45822 3.51897 3.72768C4.08276 4.13617 4.42946 4.73618 4.64777 5.68135C4.98693 7.14967 5.10901 10.4611 5.05255 16.6597C4.99278 23.2093 4.91016 24.5715 4.49277 25.8929C4.14945 26.9797 3.51036 27.5557 2.45495 27.7302C2.16448 27.7782 1.75293 27.8546 1.54046 27.9004L1.15414 27.9831V28.8167H14.9237V28.3933H14.9236ZM39.0166 28.9818C38.9465 28.9372 38.9236 28.7597 38.9397 28.3864L38.9628 27.8547L39.232 27.7975C39.3801 27.7659 39.6982 27.7032 39.9388 27.6583C40.6837 27.5191 41.1117 27.1148 41.3526 26.3226C41.5489 25.6775 41.6353 23.6132 41.6398 19.4679C41.6453 14.3981 41.5397 13.2008 41.0272 12.5222C40.7494 12.1543 40.5492 12.0497 39.8752 11.9203C39.5426 11.8565 39.1926 11.788 39.0974 11.7681C38.9432 11.736 38.9243 11.6858 38.9243 11.3087C38.9243 10.9421 38.9475 10.8758 39.0974 10.8141C39.3276 10.7195 46.9482 9.19583 47.1917 9.19583H47.3816L47.3444 10.3307C47.3238 10.9549 47.2911 11.8638 47.2716 12.3505L47.2361 13.2354L47.5122 12.7374C48.3959 11.1433 49.387 10.1536 50.705 9.54954C51.4285 9.21783 51.9113 9.11888 52.8051 9.11888C53.8651 9.11888 54.9249 9.46482 54.9249 9.81091C54.9249 10.0436 53.0572 14.9797 52.9542 15.0191C52.904 15.0384 52.5393 14.899 52.1438 14.7091C51.319 14.3132 50.5453 14.1197 49.7942 14.1213C48.8588 14.1233 47.8139 14.4679 47.4015 14.9105C47.225 15.0998 47.2242 15.1112 47.1803 17.9382C47.1369 20.7378 47.2301 24.1527 47.3875 25.5261C47.5216 26.6962 47.8325 27.2722 48.4744 27.5405C48.6886 27.6299 50.0435 27.8156 50.4857 27.8161C50.5192 27.8161 50.5365 28.0845 50.5242 28.4124L50.5017 29.0087L44.8092 29.027C41.6782 29.0373 39.0716 29.017 39.0166 28.9818ZM50.3862 28.3999V27.9834L49.79 27.9329C48.4149 27.8169 48.0382 27.6788 47.6771 27.1587C47.1538 26.4049 47.0399 25.0139 47.0399 19.378V14.9792L47.2306 14.7762C47.4712 14.5199 48.2234 14.1625 48.7553 14.0516C49.8353 13.8263 51.2159 14.021 52.2957 14.5506C52.6057 14.7027 52.8722 14.8141 52.8881 14.7982C52.9199 14.7663 54.6935 10.0784 54.7485 9.88063C54.7735 9.79091 54.6713 9.71274 54.373 9.59332C53.7345 9.33771 53.1808 9.25015 52.4665 9.29155C50.556 9.40242 48.8605 10.672 47.6392 12.906C47.4365 13.2769 47.2265 13.5807 47.1727 13.5811C47.0943 13.5816 47.0852 13.1556 47.1273 11.4613L47.18 9.34079L46.9946 9.38449C46.8926 9.4085 45.3553 9.72005 43.5784 10.0768C39.7672 10.8418 39.2375 10.9533 39.1466 11.0095C39.109 11.0327 39.0783 11.1702 39.0783 11.3151C39.0783 11.6056 39.0443 11.5888 39.9103 11.7281C41.1007 11.9196 41.5211 12.5002 41.6986 14.1974C41.9301 16.4104 41.8376 25.0371 41.5698 26.2148C41.4328 26.817 41.079 27.3969 40.7228 27.603C40.5908 27.6794 40.1754 27.8019 39.7997 27.8753L39.1166 28.0087L39.0933 28.4126L39.0701 28.8166H50.3862V28.3999Z" stroke="#4B4B4B" stroke-width="1.6" mask="url(#path-1-outside-1_39_3796)"/>
</svg>
