<svg width="142" height="29" viewBox="0 0 142 29" fill="none" xmlns="http://www.w3.org/2000/svg">
<path d="M73.3441 14.0993C72.1759 14.0993 71.3339 14.4823 70.48 14.8726V23.703C71.2979 23.781 71.7667 23.781 72.5426 23.781C75.3464 23.781 75.7308 22.4969 75.7308 20.7041V16.4866C75.7308 15.1626 75.2914 14.0993 73.3441 14.0993ZM54.7233 13.6173C52.7779 13.6173 52.3339 14.6853 52.3339 16.008V16.7512H57.1099V16.008C57.1099 14.6853 56.666 13.6173 54.7233 13.6173ZM18.651 22.8086C18.651 23.8549 19.1447 24.3984 20.2343 24.3984C21.4031 24.3984 22.0952 24.0173 22.9484 23.6258V21.5311H20.3928C19.1827 21.5311 18.651 21.7563 18.651 22.8086ZM91.4575 14.0993C89.5088 14.0993 88.8337 15.1626 88.8337 16.4866V21.3183C88.8337 22.6456 89.5088 23.7122 91.4575 23.7122C93.4009 23.7122 94.0812 22.6456 94.0812 21.3183V16.4866C94.0805 15.1626 93.4002 14.0993 91.4575 14.0993ZM9.10162 28.2263H3.37355V14.3618H0.511475V9.58452H3.3742V6.71524C3.3742 2.81729 4.98956 0.5 9.58093 0.5H13.4036V5.27864H11.0143C9.22669 5.27864 9.10883 5.94652 9.10883 7.19258L9.10162 9.58386H13.4298L12.9236 14.3612H9.10162V28.2263ZM28.6778 28.2623H23.9037L23.6975 27.0549C21.5177 28.2623 19.5723 28.4581 18.2889 28.4581C14.7878 28.4581 12.9243 26.1192 12.9243 22.8845C12.9243 19.0685 15.0988 17.7065 18.9889 17.7065H22.9484V16.8815C22.9484 14.9335 22.7251 14.3618 19.7295 14.3618H14.8317L15.3103 9.58452H20.6639C27.2366 9.58452 28.6778 11.6608 28.6778 16.9201V28.2623ZM44.9119 14.7122C41.9412 14.2027 41.088 14.0908 39.6586 14.0908C37.0911 14.0908 36.3152 14.6572 36.3152 16.8376V20.9621C36.3152 23.1425 37.0911 23.7115 39.6586 23.7115C41.088 23.7115 41.9412 23.5976 44.9119 23.0862V27.7463C42.3098 28.3298 40.6146 28.483 39.1819 28.483C33.0321 28.483 30.5878 25.249 30.5878 20.5771V17.2305C30.5878 12.5546 33.0321 9.31474 39.1819 9.31474C40.6146 9.31474 42.3098 9.46862 44.9119 10.0547V14.7122ZM62.8374 20.5771H52.3333V20.9621C52.3333 23.1425 53.1099 23.7115 55.6766 23.7115C57.9841 23.7115 59.3925 23.5976 62.3581 23.0862V27.7463C59.498 28.3298 58.0077 28.483 55.2019 28.483C49.0515 28.483 46.6059 25.249 46.6059 20.5771V16.7505C46.6059 12.6627 48.4203 9.31474 54.7226 9.31474C61.0249 9.31474 62.8374 12.624 62.8374 16.7505V20.5771ZM81.4576 20.6655C81.4576 25.1809 80.167 28.4745 72.3488 28.4745C69.5254 28.4745 67.8694 28.2263 64.7533 27.747V1.93529L70.4794 0.97996V10.0088C71.7169 9.54916 73.3185 9.3154 74.7761 9.3154C80.5029 9.3154 81.4569 11.8828 81.4569 16.0086V20.6655H81.4576ZM99.8132 20.7637C99.8132 24.659 98.205 28.4371 91.4764 28.4371C84.7446 28.4371 83.1063 24.659 83.1063 20.7637V17.0026C83.1063 13.1053 84.7446 9.32653 91.4764 9.32653C98.205 9.32653 99.8132 13.1053 99.8132 17.0026V20.7637ZM118.156 20.7637C118.156 24.659 116.546 28.4371 109.819 28.4371C103.087 28.4371 101.449 24.659 101.449 20.7637V17.0026C101.449 13.1053 103.087 9.32653 109.819 9.32653C116.546 9.32653 118.156 13.1053 118.156 17.0026V20.7637ZM136.981 28.2263H130.774L125.525 19.4633V28.2263H119.797V1.93464L125.525 0.979304V17.9049L130.774 9.58452H136.981L131.25 18.6644L136.981 28.2263ZM109.799 14.0993C107.854 14.0993 107.179 15.1626 107.179 16.4866V21.3183C107.179 22.6456 107.854 23.7122 109.799 23.7122C111.742 23.7122 112.43 22.6456 112.43 21.3183V16.4866C112.43 15.1626 111.742 14.0993 109.799 14.0993ZM140.25 24.9563C141.215 24.9563 141.983 25.7427 141.983 26.7249C141.983 27.7221 141.214 28.5 140.243 28.5C139.277 28.5 138.493 27.7221 138.493 26.7249C138.493 25.7427 139.277 24.9563 140.243 24.9563H140.25ZM140.243 25.2313C139.466 25.2313 138.83 25.8998 138.83 26.7249C138.83 27.565 139.466 28.225 140.25 28.225C141.035 28.2328 141.661 27.565 141.661 26.7327C141.661 25.9005 141.035 25.2313 140.25 25.2313H140.243ZM139.914 27.7542H139.599V25.7807C139.764 25.7578 139.922 25.7348 140.157 25.7348C140.456 25.7348 140.651 25.7977 140.771 25.8835C140.887 25.9706 140.949 26.1035 140.949 26.2914C140.949 26.552 140.777 26.7085 140.566 26.772V26.7871C140.738 26.8192 140.855 26.975 140.895 27.2651C140.941 27.5722 140.989 27.6894 141.02 27.7535H140.69C140.644 27.6894 140.596 27.5093 140.557 27.2494C140.511 26.9986 140.384 26.9043 140.132 26.9043H139.914V27.7542H139.914ZM139.914 26.662H140.142C140.4 26.662 140.619 26.5671 140.619 26.3228C140.619 26.15 140.494 25.9778 140.142 25.9778C140.039 25.9778 139.967 25.9856 139.914 25.9928V26.662Z" fill="#4B4B4B"/>
</svg>
