<svg width="100" height="29" viewBox="0 0 100 29" fill="none" xmlns="http://www.w3.org/2000/svg">
<path d="M6.17253 0.5C5.26716 0.5 4.09343 1.46164 3.40102 2.10177C1.87876 3.45519 0.5 5.94386 0.5 7.94139C0.5 10.7798 2.90999 11.8512 3.51955 11.8512C3.72052 11.8512 3.89186 11.7473 3.89186 11.4742C3.89186 11.2601 3.75629 11.0819 3.62142 10.8989C3.06329 10.0442 2.88402 9.2286 2.88402 8.1285C2.88402 5.83487 3.94012 3.73253 4.81616 2.77049C4.97769 2.59639 5.34267 2.22029 5.45188 2.22029C5.56029 2.22029 5.58715 2.30873 5.58715 2.5821L5.48537 17.5944C5.48537 19.9412 4.80932 20.8735 4.80932 21.4261C4.80932 21.6689 4.91427 21.7319 5.11464 21.7319C6.06342 21.7319 7.00892 20.5736 7.27679 20.1512C8.10743 18.7141 8.31118 17.5922 8.31118 14.3563V1.74146C8.31118 1.4 8.21555 1.2524 7.8917 1.04187C7.4181 0.740608 6.87544 0.5 6.17253 0.5ZM33.3002 0.541888C32.8539 0.541888 32.6632 0.775548 32.6421 1.49856L32.5431 4.49227L29.9291 4.40155C29.7706 4.39748 29.6989 4.4477 29.6296 4.58726C29.4076 5.00416 29.2907 5.33083 29.2907 5.87478C29.2907 6.31768 29.4912 6.36493 29.67 6.36493L32.3897 6.44315L32.3813 12.1627C32.3813 13.3757 31.6171 14.9494 30.261 16.2583C30.261 16.2583 30.3777 15.8631 30.371 15.4485C30.371 14.2749 29.617 13.2114 28.6117 12.4588L26.1581 10.61C26.6724 10.0141 27.5438 8.83206 27.5438 7.83399C27.5438 7.06015 27.058 6.73507 26.1525 6.73507C24.8744 6.73507 23.3922 7.90754 23.3922 9.64649C23.3922 10.2804 23.6737 10.8509 24.1017 11.2873C23.5108 12.4103 22.6747 13.8879 22.0538 14.9402C21.5849 15.7459 20.7916 16.9803 20.3223 16.9803C19.9762 16.9803 19.8163 16.4349 19.8163 14.3397C19.8163 12.599 19.9398 10.7064 20.0017 8.88973C20.0017 8.47333 19.9335 8.08919 19.3938 7.71259C18.8973 7.39397 18.2842 6.94898 17.6526 6.94898C16.2486 6.94898 15.2921 8.24304 14.636 9.50842C13.957 10.8199 13.5898 11.925 13.0718 13.5285L13.129 8.01008C13.1466 7.61661 13.0474 7.46384 12.7331 7.32994C12.3253 7.15673 11.725 6.95702 11.1926 6.95702C10.7476 6.95702 10.6935 7.14919 10.6935 7.6175L10.6337 14.2391L10.6268 16.793C10.6268 19.0955 10.9147 19.4795 12.2788 19.4795C13.034 19.4795 13.2759 19.3906 13.2909 18.7618C13.3116 18.3459 13.5102 17.3383 13.7789 16.3278C14.5646 13.3452 15.4957 10.9862 17.101 9.1882C17.2683 9.0137 17.3978 9.07614 17.3714 9.3236C17.3714 9.3236 17.1176 13.36 17.1176 15.011C17.1176 17.9474 17.5687 19.4796 19.0274 19.4796C20.4589 19.4796 21.865 17.6372 22.6325 16.3935L25.0946 12.2686C26.69 13.6302 27.8033 14.686 27.8033 15.9703C27.8033 16.7686 27.3004 17.5495 26.5345 17.5495C25.5773 17.5495 24.9658 16.5385 24.3192 16.5385C23.7826 16.5385 23.0939 17.5761 23.0939 18.1654C23.0939 18.7216 24.3058 19.5086 26.4802 19.5086C29.6901 19.5086 31.4121 17.3021 32.4455 14.8587C32.6433 17.7587 33.7969 19.4527 35.5961 19.4527C36.7763 19.4527 38.1403 17.9592 38.7607 16.1349C38.7607 16.1349 38.822 16.6085 39.2932 17.5787C39.9418 18.8458 40.9278 19.4276 42.1526 19.4276C43.6759 19.4276 44.9789 18.5025 45.7744 16.9504C45.895 18.1265 46.8809 19.4218 48.4664 19.4218C49.4616 19.4218 50.369 18.658 50.9646 17.3999C50.9646 17.3999 51.7361 19.4778 53.9675 19.4778C55.2208 19.4778 56.7049 18.3148 57.0596 17.4698L57.0986 18.6987L53.7878 21.7568C52.8265 22.6916 51.8039 24.0346 51.8039 25.5215C51.8039 27.4126 53.5864 28.5 55.1552 28.5C56.7859 28.5 57.8678 27.4652 58.4605 26.5982C59.2064 25.4762 59.5215 23.3617 59.5215 21.2947L59.4476 18.1865C61.679 15.7297 63.4254 12.3339 64.2028 9.93117L65.8966 9.88651C66.2247 9.86437 66.2084 9.9938 66.163 10.1854C65.8653 11.4454 65.6054 12.8724 65.6054 14.2935C65.6054 16.6413 66.1453 17.663 66.9213 18.498C67.5961 19.1976 68.2671 19.4335 68.9733 19.4335C70.3546 19.4335 71.2217 18.291 71.4967 17.5708C72.1453 18.8379 73.1008 19.428 74.3253 19.428C75.8487 19.428 77.1517 18.5029 77.9473 16.9508C78.0679 18.1269 79.0536 19.4222 80.6392 19.4222C81.8237 19.4222 82.5108 18.7376 83.0511 17.4477C83.062 17.8626 83.0779 18.3049 83.0901 18.7196C83.1044 18.9342 83.2756 19.07 83.4289 19.126C83.9324 19.3169 84.3744 19.4124 84.7714 19.4124C85.8068 19.4124 86.0317 19.1994 86.0317 18.5214C86.0317 17.4032 86.0644 15.6365 86.3816 14.218C86.7183 12.8057 87.2265 11.2069 87.9277 10.0945C87.9908 9.97951 88.1455 10.0097 88.1523 10.149C88.253 12.5291 88.4119 16.5583 89.0361 17.6014C89.3441 18.0989 89.8205 18.4615 90.5333 18.4615C90.8676 18.4615 91.2774 18.3187 91.3822 18.2297C91.4884 18.1467 91.542 18.0545 91.5355 17.8835C91.5355 14.8407 92.4829 11.8949 93.4316 9.9144C93.4576 9.85563 93.5316 9.85107 93.5291 9.92839L93.4762 12.1208C93.4762 15.7216 93.7353 17.9964 95.531 19.0901C95.8841 19.2879 96.2821 19.3913 96.6867 19.3901C97.6054 19.3901 98.4386 18.8762 98.8503 18.0496C99.1858 17.4073 99.5 16.171 99.5 15.4707C99.5 15.1996 99.5032 14.7584 99.0595 14.7584C98.8162 14.7584 98.6701 14.9381 98.6119 15.2095C98.4705 15.7977 98.3544 16.3021 98.135 16.8837C97.9253 17.4389 97.6124 17.7622 97.2413 17.7622C96.8055 17.7622 96.5843 17.4186 96.4579 17.2063C95.9017 16.3566 95.8571 14.4048 95.8571 12.7756L95.991 8.58232C95.991 8.2354 95.8464 7.82019 95.312 7.51407C94.9532 7.30721 94.0459 6.91781 93.4899 6.91781C92.9744 6.91781 92.7249 7.21023 92.5391 7.63954C92.1902 8.41059 91.0242 11.435 90.7115 13.8939C90.7003 13.9587 90.6196 13.9724 90.614 13.8897C90.4515 12.1508 90.3681 10.0557 90.3699 8.64227C90.3699 8.21495 90.2656 7.6041 89.3606 7.20825C88.9208 7.02551 88.557 6.91364 88.1127 6.91364C87.5615 6.91364 87.443 7.18383 87.2456 7.54186C86.6212 8.69746 86.1894 10.2044 85.5422 12.1053L85.552 7.75567C85.552 7.55229 85.4275 7.28567 85.071 7.21391C84.1869 7.01042 83.7774 6.91801 83.4288 6.91801C83.175 6.91801 83.0356 7.1206 83.0356 7.33967L82.9881 14.7558C82.8171 15.6637 82.1241 17.8307 81.1409 17.8307C80.334 17.8307 79.9574 17.0117 79.9574 13.5886L80.1039 8.02536C80.1039 7.67398 79.8735 7.52638 79.5379 7.37759C79.058 7.18661 78.6761 7.11077 78.1884 7.11077C77.5761 7.11077 77.366 7.40429 77.4899 8.10934C76.8169 7.19733 76.1441 6.69328 74.9556 6.69328C72.5693 6.69328 70.7705 9.56837 70.7705 13.7465C70.7471 14.918 71.0298 16.0825 71.0298 16.0825C70.8138 17.0548 70.3062 17.8474 69.605 17.8474C68.7204 17.8474 68.1566 16.5947 68.1566 14.4235C68.1566 12.2459 68.9846 9.78992 68.9846 9.12428C68.9846 8.35034 68.4783 7.86069 67.5822 7.86069C67.1333 7.86069 65.4679 8.23907 64.6142 8.36325C64.6142 8.36325 64.7105 7.95598 64.7034 7.63576C64.7034 6.87265 64.3459 6.39441 63.4585 6.39441C62.3741 6.39441 61.5778 7.17003 61.5778 8.49328C61.5778 9.08696 61.9192 9.63627 62.3711 9.93137C61.7845 12.3819 60.8308 14.2044 59.4254 16.2403L59.5438 7.99608C59.5438 7.72808 59.4725 7.56162 58.9484 7.35783C58.6713 7.23793 58.2197 7.09946 57.6505 7.09946C56.8255 7.09946 56.8801 7.68956 56.9242 8.13137C56.5467 7.46097 55.7203 6.66519 54.4454 6.66519C50.9712 6.66519 49.9046 11.9717 50.4277 15.7402C50.4277 16.1997 49.9797 17.8307 48.968 17.8307C48.1611 17.8307 47.7845 17.0117 47.7845 13.5886L47.9324 8.02536C47.9324 7.67388 47.7005 7.52628 47.3648 7.37759C46.8849 7.18661 46.5044 7.11077 46.0167 7.11077C45.4043 7.11077 45.1942 7.40429 45.3181 8.10924C44.6451 7.19723 43.971 6.69318 42.7823 6.69318C40.396 6.69318 38.5734 9.3226 38.5734 13.5005C38.5734 15.0953 37.2025 17.529 36.2411 17.529C35.7071 17.529 35.1385 16.547 35.1385 14.0381C35.1411 12.3279 35.374 6.50608 35.374 6.50608L38.7296 6.45158C38.8898 6.45009 38.9825 6.2748 39.0419 6.1668C39.196 5.85363 39.2705 5.64509 39.2705 5.27038C39.2705 4.9323 39.2029 4.80882 38.7701 4.7844L35.4256 4.58329L35.5679 1.46253C35.5779 1.2655 35.4592 1.13706 35.2444 1.04087C34.597 0.787261 33.803 0.541987 33.3002 0.541888ZM43.456 8.719C44.3507 8.719 45.2586 9.53631 45.2586 12.436C45.2586 16.087 43.9306 17.7857 42.9095 17.7857C41.9522 17.7857 41.2255 16.4323 41.2255 13.7739C41.2255 11.0868 41.9352 8.719 43.456 8.719ZM75.6762 8.719C76.5709 8.719 77.4787 9.53631 77.4787 12.436C77.4787 16.087 76.1508 17.7857 75.1297 17.7857C74.1724 17.7857 73.4456 16.4323 73.4456 13.7739C73.4457 11.0868 74.1553 8.719 75.6762 8.719ZM55.2403 8.73577C56.4079 8.73577 56.9244 9.9412 56.9244 12.2782C56.9244 15.8017 55.8787 17.8078 54.6087 17.8078C53.798 17.8078 52.8658 16.4744 52.9149 13.8519C52.9149 12.1751 53.4608 8.73577 55.2403 8.73577ZM57.217 20.5226V21.9105C57.217 26.5158 55.9919 27.3018 55.0074 27.3018C54.6344 27.3018 53.7207 27.0196 53.7207 25.8803C53.7207 24.2877 55.3831 22.4759 55.8997 21.916L57.217 20.5226Z" fill="#4B4B4B"/>
</svg>
