<svg width="191" height="29" viewBox="0 0 191 29" fill="none" xmlns="http://www.w3.org/2000/svg">
<path fill-rule="evenodd" clip-rule="evenodd" d="M104.743 13.5019C104.743 13.5019 102.885 12.3514 101.736 11.9063C101.736 11.9063 98.179 10.2558 97.4734 9.47052C97.4734 9.47052 96.0871 8.16254 96.8989 6.64333C96.8989 6.64333 97.2386 5.64921 98.7035 5.64921C98.7035 5.64921 100.611 5.75423 100.611 7.32357V9.53736H107.445L107.433 6.27695C107.433 6.27695 107.959 0.937623 99.3829 0.70252C99.3829 0.70252 92.6376 0.258565 90.703 3.89609C90.703 3.89609 89.9437 4.70761 89.9437 7.53361V9.57554C89.9437 9.57554 89.8663 11.9313 91.0678 13.4494C91.0678 13.4494 91.7472 14.4447 93.4207 15.5426C93.4207 15.5426 96.819 17.3745 98.8585 18.4235C98.8585 18.4235 100.917 19.6002 100.646 21.4727C100.646 21.4727 100.478 23.3953 98.4901 23.3165C98.4901 23.3165 96.6724 23.2353 96.6724 21.3498V19.1372H89.3895V22.351C89.3895 22.351 89.1856 28.4971 98.5438 28.4971C98.5438 28.4971 107.486 28.6785 107.903 22.1899V19.5728C107.902 19.5728 108.219 15.5963 104.743 13.5019ZM69.7518 1.4675L67.4632 15.8266H66.928L64.742 1.59639H53.3253L52.7532 27.5997H59.5128L59.5939 8.0074H60.1255L63.7085 27.5961H70.8198L74.3588 8.01456H74.8296L74.9929 27.5997H81.7883L81.0564 1.4675H69.7518ZM29.5134 1.5761L25.0161 27.5698H32.293L34.9571 7.41547H35.5555L38.2183 27.5698H45.4941L40.998 1.5761H29.5134ZM182.207 13.1438V16.9783H184.073V21.0944C184.073 23.1065 182.356 23.1435 182.356 23.1435C180.267 23.1435 180.346 21.2316 180.346 21.2316V6.99419C180.346 5.52748 182.2 5.44872 182.2 5.44872C183.978 5.44872 183.99 7.19827 183.99 7.19827V9.36311H190.841C191.065 5.13724 190.224 4.11449 190.224 4.11449C188.524 0.293181 182.095 0.502028 182.095 0.502028C172.214 0.502028 173.311 8.09213 173.311 8.09213V21.8581C173.523 28.9769 183.259 28.2537 183.424 28.2477C187.754 27.7679 189.062 26.3895 189.062 26.3895C190.266 25.4945 190.576 24.2545 190.576 24.2545C190.92 23.5325 191.006 21.2316 191.006 21.2316V13.1438H182.207ZM159.496 17.3745H159.198L152.245 1.47465H143.927V27.602H150.697L150.292 11.7046H150.595L157.798 27.602H165.864V1.47227H159.007L159.496 17.3745ZM127.4 21.092C127.4 21.092 127.498 23.2365 125.512 23.2365C125.512 23.2365 123.424 23.3487 123.424 21.1457L123.402 1.49017H115.976V20.9893C115.976 20.9893 115.215 28.3694 125.617 28.3694C125.617 28.3694 134.657 28.4768 134.657 21.3283V1.49136H127.4V21.092ZM15.3564 13.5019C15.3564 13.5019 13.5005 12.3514 12.3502 11.9075C12.3502 11.9075 8.79578 10.2582 8.09014 9.47172C8.09014 9.47172 6.70388 8.16135 7.5168 6.64571C7.5168 6.64571 7.85532 5.6516 9.31906 5.6516C9.31906 5.6516 11.2274 5.75543 11.2274 7.32476V9.53855H18.0645L18.0514 6.27695C18.0514 6.27695 18.5735 0.937622 10.0009 0.703713C10.0009 0.703713 9.35482 0.66194 8.4072 0.709677C8.4072 0.709677 3.2138 0.988936 1.35672 3.84119C1.34599 3.86267 1.33049 3.87819 1.31976 3.89729C1.31976 3.89729 0.561673 4.70761 0.561673 7.53481V9.57673C0.561673 9.57673 0.483002 11.9325 1.6857 13.4506C1.6857 13.4506 2.36512 14.4459 4.03864 15.5438C4.03864 15.5438 7.43575 17.3757 9.4752 18.4247C9.4752 18.4247 11.5361 19.599 11.2632 21.4739C11.2632 21.4739 11.0951 23.3965 9.10808 23.3177C9.10808 23.3177 7.29033 23.2365 7.29033 21.351V19.1372H0.00621453V22.3534C0.00621453 22.3534 -0.197611 28.4995 9.16052 28.4995C9.16052 28.4995 18.1003 28.6809 18.521 22.1923V19.5775C18.521 19.5752 18.8333 15.5963 15.3564 13.5019Z" fill="#4B4B4B"/>
</svg>
