<svg width="63" height="29" viewBox="0 0 63 29" fill="none" xmlns="http://www.w3.org/2000/svg">
<path fill-rule="evenodd" clip-rule="evenodd" d="M35.1359 9.16168V9.68568H36.716C37.2025 9.68568 37.3644 9.80668 37.3644 10.29V10.6526C37.3644 11.0956 37.2025 11.2166 36.716 11.2166H35.1359C34.6494 11.2166 34.5274 11.0956 34.5274 10.6526V10.572L35.0138 10.4513V10.7733H36.8377V10.169H35.2573C34.7708 10.169 34.6088 10.048 34.6088 9.56467V9.32302C34.6088 8.83936 34.7708 8.71871 35.2573 8.71871H36.6758C37.1217 8.71871 37.3242 8.83936 37.3242 9.2427V9.32302L36.7971 9.44402V9.16168H35.1359ZM39.9577 8.71871H40.5253V11.2163H39.9577V8.71871ZM43.5645 8.71871H44.1317V10.7729H46.036V11.2163H43.5645V8.71871ZM47.7787 8.71871H48.4677L49.4805 10.5313L50.4535 8.71871H51.061L49.683 11.2163H49.2371L47.7787 8.71871ZM53.5326 8.71871H56.1269V9.12135H54.1005V9.68532H55.2753V10.1286H54.1005V10.7729H56.1269V11.2163H53.5326V8.71871ZM60.8679 9.12135C61.0298 9.12135 61.1106 9.16133 61.1106 9.32267V9.64499C61.1106 9.80598 61.0298 9.84631 60.8679 9.84631H59.5305V9.12135H60.8679ZM58.9629 11.2163H59.5305V10.2896H60.0974L61.1102 11.2163H61.9618L60.7864 10.2896H61.1102C61.5152 10.2896 61.6778 10.1287 61.6778 9.80633V9.20202C61.6778 8.83936 61.5152 8.71871 61.1102 8.71871H58.9625L58.9629 11.2163ZM54.587 18.7097L51.7098 13.7545H51.9528V13.3919H49.683V13.7545H50.0076L47.2115 18.7097H46.6439V19.0727H48.8321V18.7097H48.5083L48.9948 17.8241H52.6012L53.0877 18.7097H52.8037V19.0727H55.0326V18.7097H54.587ZM49.5617 16.7757L50.8179 14.4795L52.0333 16.7757H49.5617ZM59.8543 16.8971H60.6248C61.4757 16.8971 61.881 16.6147 61.881 15.8091V14.4795C61.881 13.7142 61.4761 13.3919 60.6248 13.3919H55.2753V13.7545H55.7212V18.7097H55.2753V19.0727H57.5041V18.7097H57.0176V16.8971H58.3145L60.5842 19.0727H62.4885L59.8543 16.8971ZM57.0176 15.9305V14.3588H60.017C60.422 14.3588 60.6248 14.4391 60.6248 14.8022V15.4871C60.6248 15.8898 60.4223 15.9305 60.017 15.9305H57.0176ZM48.0218 13.3919H41.457V14.7618H41.8221V14.3992H44.0502V18.7097H43.6047V19.0727H45.8335V18.7097H45.3876V14.3992H47.6574V14.7618H48.0218V13.3919ZM37.4046 23.5848H37.0402V21.4093C36.9181 21.7319 36.3106 22.8999 35.9459 23.5848H35.8238C35.4594 22.8999 34.8921 21.7716 34.811 21.4093V23.5848H34.4871V20.9256H34.8921C35.2565 21.6106 35.5811 22.3359 35.9455 23.1012C36.3099 22.3359 36.6751 21.6106 37.0804 20.9256H37.4043L37.4046 23.5848ZM38.7014 21.8929C39.1473 21.8929 39.269 22.2552 39.269 22.6175C39.269 22.9805 39.147 23.3835 38.7014 23.3835C38.2559 23.3835 38.1345 22.9809 38.1345 22.6175C38.1345 22.2552 38.2559 21.8929 38.7014 21.8929ZM38.7014 23.6252C39.269 23.6252 39.6338 23.2225 39.6338 22.6175C39.6338 22.0132 39.1879 21.6509 38.7014 21.6509C38.2149 21.6509 37.7292 22.0132 37.7292 22.6175C37.7292 23.2225 38.1345 23.6252 38.7014 23.6252ZM41.295 23.3835C41.0926 23.5445 40.9306 23.6252 40.6872 23.6252C40.2413 23.6252 39.9982 23.3835 39.9982 22.8999V21.6916H40.3228V22.8192C40.3228 23.1822 40.4847 23.3835 40.8086 23.3835C41.0925 23.3835 41.295 23.1822 41.295 22.8192V21.6916H41.6595V23.5848H41.295V23.3835ZM42.4705 21.9332C42.673 21.7319 42.9164 21.6509 43.1189 21.6509C43.5648 21.6509 43.8079 21.8926 43.8079 22.3755V23.5845H43.4833V22.4562C43.4833 22.0939 43.3214 21.8926 42.9968 21.8926C42.7136 21.8926 42.4705 22.0939 42.4705 22.4562V23.5845H42.1459V21.6912H42.4705V21.9332ZM44.7392 21.6916H45.2257V21.8929H44.7392V22.9809C44.7392 23.2225 44.7798 23.3835 45.0232 23.3835C45.1446 23.3835 45.2257 23.3835 45.2663 23.3432L45.347 23.5042C45.2257 23.5848 45.1043 23.6255 44.9826 23.6255C44.5776 23.6255 44.3748 23.4242 44.3748 23.0205V21.8929H44.1317V21.6916H44.3748V21.2079L44.7392 21.0866V21.6916ZM46.6844 22.4565C46.725 23.0608 46.4011 23.3835 46.1581 23.3835C46.036 23.3835 45.8741 23.2622 45.8741 23.0608C45.8741 22.8192 46.036 22.6582 46.3606 22.5772L46.6844 22.4565ZM46.6844 23.2622C46.6844 23.3835 46.6844 23.5038 46.725 23.5848H47.13C47.0492 23.4635 47.0492 23.2622 47.0492 23.1415V22.2955C47.0492 21.7319 46.6033 21.6509 46.3197 21.6509C46.036 21.6509 45.8332 21.7316 45.6712 21.8926L45.7926 22.0535C45.9147 21.9729 46.0766 21.8522 46.2791 21.8522C46.4816 21.8522 46.6841 22.0132 46.6841 22.2549L46.1976 22.3755C45.8332 22.4969 45.5492 22.7385 45.5492 23.0605C45.5492 23.4235 45.7524 23.6248 46.0762 23.6248C46.1703 23.6229 46.2627 23.6002 46.3468 23.5584C46.431 23.5166 46.5047 23.4568 46.5627 23.3832L46.6844 23.2622ZM47.5759 21.6916H47.9005V23.5848H47.5759V21.6916ZM47.5353 21.0469C47.5353 20.9663 47.6165 20.8456 47.7378 20.8456C47.9005 20.8456 47.9809 20.9663 47.9809 21.0469C47.9809 21.1676 47.9001 21.2886 47.7378 21.2886C47.5759 21.2886 47.5353 21.1676 47.5353 21.0469ZM48.7514 21.9332C48.9538 21.7319 49.1973 21.6509 49.3998 21.6509C49.8457 21.6509 50.088 21.8926 50.088 22.3755V23.5845H49.7642V22.4562C49.7642 22.0939 49.6023 21.8926 49.2777 21.8926C48.9944 21.8926 48.7514 22.0939 48.7514 22.4562V23.5845H48.4268V21.6912H48.7514V21.9332ZM52.1147 21.1676H52.4393C52.6824 21.1676 52.8852 21.3286 52.8852 21.6513C52.8852 21.8526 52.8041 22.2149 52.3176 22.2149H52.1151V21.1676H52.1147ZM51.75 23.5848H52.1144V22.4969H52.5194L53.1272 23.6252L53.4923 23.5445L52.8439 22.3759C53.087 22.2149 53.2898 22.0136 53.2898 21.6106C53.2898 21.1269 52.9653 20.9256 52.5194 20.9256H51.7496L51.75 23.5848ZM54.019 22.4162C54.019 22.1745 54.1817 21.8929 54.5461 21.8929C54.8301 21.8929 54.992 22.1346 54.992 22.4162H54.019ZM55.2753 22.6582C55.3158 22.1745 55.1133 21.6513 54.5464 21.6513C54.1005 21.6513 53.614 21.9336 53.614 22.6179C53.614 23.2625 54.019 23.6255 54.6276 23.6255C54.8301 23.6255 55.0728 23.5449 55.2753 23.4242L55.1539 23.2229C55.0326 23.3435 54.8301 23.3839 54.6276 23.3839C54.2625 23.3839 53.9785 23.0612 53.9785 22.6586L55.2753 22.6582ZM56.6938 21.9732C56.5724 21.8929 56.4507 21.8526 56.3294 21.8526C56.2073 21.8526 56.0863 21.9332 56.0863 22.0942C56.0863 22.2552 56.2482 22.3359 56.4507 22.4969C56.6938 22.6579 56.8557 22.8188 56.8557 23.1012C56.8557 23.4239 56.5724 23.6252 56.2073 23.6252C55.9643 23.6252 55.7208 23.5445 55.5995 23.3835L55.7614 23.2225C55.8835 23.3029 56.0454 23.3835 56.2073 23.3835C56.3692 23.3835 56.5319 23.3029 56.5319 23.1419C56.5319 22.9002 56.3294 22.8192 56.1269 22.6582C55.9237 22.5376 55.7212 22.3759 55.7212 22.1349C55.7212 21.8122 56.0052 21.6513 56.3696 21.6513C56.5728 21.6513 56.7347 21.7319 56.8561 21.8122L56.6938 21.9732ZM58.112 21.8929C58.5579 21.8929 58.6796 22.2552 58.6796 22.6175C58.6796 22.9805 58.5575 23.3835 58.112 23.3835C57.6664 23.3835 57.545 22.9809 57.545 22.6175C57.5447 22.2552 57.666 21.8929 58.112 21.8929ZM58.112 23.6252C58.6796 23.6252 59.0849 23.2225 59.0849 22.6175C59.0849 22.0132 58.5984 21.6509 58.112 21.6509C57.6262 21.6509 57.1803 22.0132 57.1803 22.6175C57.1803 23.2225 57.5447 23.6252 58.112 23.6252ZM59.7739 21.9332L59.8953 21.7716C59.9764 21.6912 60.0977 21.6509 60.1792 21.6509C60.3006 21.6509 60.4223 21.6912 60.5031 21.8119L60.3412 22.0535C60.26 22.0132 60.1792 21.9729 60.0981 21.9729C59.9362 21.9729 59.7743 22.1346 59.7743 22.5772V23.5848H59.4091V21.6916H59.7743L59.7739 21.9332ZM61.2732 21.6916H61.7995V21.8929H61.2732V22.9809C61.2732 23.2225 61.3131 23.3835 61.5565 23.3835C61.6785 23.3835 61.759 23.3835 61.7995 23.3432L61.8807 23.5042C61.7586 23.5848 61.6376 23.6255 61.5156 23.6255C61.1106 23.6255 60.9486 23.4242 60.9486 23.0205V21.8929H60.6654V21.6916H60.9486V21.2079L61.2732 21.0866V21.6916ZM39.3904 15.5675H35.8242V14.3588H39.5523V15.0035L40.7278 14.7211V14.6005V13.3919H40.3627V13.5932C40.1199 13.4322 39.7957 13.3515 39.3093 13.3515H36.0676C35.0142 13.3515 34.6494 13.6335 34.6494 14.7211V15.3254C34.6494 16.4134 35.0138 16.6954 36.0676 16.6954H39.6338V17.9847H35.6217V17.2997L34.4469 17.5414V17.7024C34.4469 18.7496 34.7708 19.032 35.8651 19.032H39.3908C40.4441 19.032 40.8089 18.7496 40.8089 17.7024V16.9371C40.8086 15.8498 40.4441 15.5675 39.3904 15.5675ZM14.9147 10.733C13.7801 8.63769 15.5631 6.94576 18.1161 5.69715L16.3738 1.54729C16.3332 1.3863 15.9684 0.5 15.9684 0.5C15.9684 0.5 15.5634 1.3863 15.5229 1.54729L11.8755 10.2093L2.71738 11.136C2.51488 11.1763 1.66398 11.2969 1.66398 11.2969C1.66398 11.2969 2.39317 11.9012 2.47431 11.9819L6.89144 15.6078C9.07972 15.0442 12.7267 14.1172 14.1047 13.5129C15.2794 12.9892 15.7656 12.3042 14.9147 10.733ZM30.0704 11.2969C30.0704 11.2969 29.2597 11.1763 29.0572 11.136L20.0208 10.2093L18.4523 6.5347L18.1959 6.67359C16.7484 7.5669 15.9698 9.08943 18.1969 11.6596C20.5065 14.3992 18.724 16.6147 16.5763 18.428C15.6442 19.1933 10.052 23.5042 7.6612 25.3175L7.21529 27.3314C7.17508 27.493 6.97258 28.4193 6.97258 28.4193C6.97258 28.4193 7.82348 27.8557 7.90462 27.815L15.9684 22.6179L23.8703 27.9364C23.9109 28.0167 24.8023 28.5 24.8023 28.5C24.8023 28.5 24.5998 27.573 24.5593 27.4527L22.4518 17.6227L29.2597 11.9819C29.3408 11.9012 30.0704 11.2969 30.0704 11.2969ZM18.3871 6.36985L18.1969 5.85813C17.7919 6.05981 17.4677 6.26113 17.1435 6.46245C16.9407 6.58345 16.7382 6.74443 16.4951 6.90542C15.2389 7.91272 14.7531 9.16168 15.6848 10.7729C17.0624 13.1099 16.3332 14.1168 14.7527 15.1241C14.5905 15.2455 14.388 15.3658 14.1855 15.4871C13.9018 15.6481 13.6182 15.8091 13.294 15.9701C12.605 16.3727 11.1057 17.0581 9.36336 17.8237C6.6886 18.9917 3.48749 20.2809 2.19068 20.8049L0.488525 25.8811C1.5017 25.2768 3.12236 24.3501 4.94587 23.2622L11.4701 19.3547C12.4022 18.7496 13.2937 18.186 14.104 17.7024C14.4282 17.4607 14.7524 17.259 15.036 17.0577C15.8464 16.5344 16.4136 16.0911 16.6973 15.8494C17.8724 14.7211 18.3994 13.0289 17.4268 11.6592C15.3126 8.68504 16.6147 7.23301 18.2791 6.42001L18.3871 6.36985Z" fill="#4B4B4B"/>
</svg>
