<svg width="78" height="29" viewBox="0 0 78 29" fill="none" xmlns="http://www.w3.org/2000/svg">
<path d="M11.8055 0.5C11.9905 0.586514 12.1077 0.765721 12.2558 0.907851C12.4963 1.11796 12.6753 1.39603 12.9097 1.61232C13.1996 1.8904 13.3847 2.24263 13.6252 2.55779C14.0447 3.19428 14.4148 3.87403 14.606 4.61558C14.8034 5.1223 14.8343 5.67228 14.8219 6.21608C14.8343 6.71045 14.6986 7.19863 14.4764 7.64356C14.0941 8.31713 13.4032 8.76824 12.6814 9.00924C11.7808 9.22552 10.7876 9.2626 9.91787 8.87947C9.60321 8.70644 9.2455 8.58903 8.99259 8.31713C8.40657 7.83512 8.0673 7.05032 8.17833 6.29024C8.35105 4.93692 9.15914 3.77516 10.0227 2.77407C10.1029 2.92238 10.035 3.09541 10.0906 3.2499C10.1646 3.57742 10.2818 3.92347 10.5286 4.15829C10.8308 3.88021 11.1516 3.60213 11.4107 3.2808C11.6451 2.93474 11.8363 2.55161 11.9165 2.14376C11.9351 1.62468 11.9844 1.08088 11.7869 0.586513L11.8055 0.5ZM0.504634 6.67337C1.94808 6.68573 3.39769 6.66101 4.8412 6.68573C4.8412 8.12556 4.85348 9.5654 4.83497 11.0052C5.85901 11.0238 6.88293 11.0114 7.91309 11.0114C7.92542 11.1226 7.93159 11.2339 7.93159 11.3451C7.91925 12.5316 7.93776 13.7119 7.91925 14.8983C6.8891 14.9107 5.86512 14.8983 4.83497 14.9045C4.85348 17.0365 4.8288 19.1622 4.84731 21.2942C4.88432 21.4796 4.90899 21.665 4.90282 21.8565C4.88426 22.0296 4.98912 22.1717 5.0262 22.3323C5.10639 22.7031 5.30995 23.0368 5.54429 23.3273C5.88979 23.6734 6.33387 23.9144 6.80885 24.0194C7.24065 24.0874 7.67245 24.1244 8.11048 24.0935C8.13509 24.1677 8.14749 24.2418 8.14749 24.3222C8.14132 25.4345 8.14132 26.5468 8.14749 27.6529C8.14749 27.8074 8.11665 27.9619 8.09197 28.1102C7.46895 28.1102 6.84598 28.1534 6.2229 28.1102C5.85278 28.0298 5.45806 28.0669 5.10022 27.9062C4.10708 27.6714 3.15712 27.1771 2.44773 26.4293C1.40525 25.4221 0.843906 24.0008 0.615668 22.5919C0.553983 22.4374 0.590994 22.2582 0.566258 22.0913C0.47996 21.7515 0.51691 21.393 0.504572 21.047C0.498466 16.2579 0.498466 11.4625 0.504634 6.67337ZM21.5765 10.6777C21.8355 10.6097 22.1131 10.6592 22.3722 10.6036C22.915 10.5356 23.4517 10.6221 23.9883 10.6406C24.3646 10.6345 24.7285 10.7457 25.0987 10.8198C26.4743 11.1535 27.7758 11.8889 28.7196 12.9642C28.8862 13.2422 29.1391 13.4462 29.2994 13.7304C29.7003 14.3669 29.9657 15.0776 30.1938 15.7944C30.3358 16.3196 30.4097 16.8634 30.4777 17.4011C30.5085 18.5937 30.49 19.7926 30.4962 20.9852C30.49 23.3643 30.5023 25.7435 30.49 28.1226C29.0465 28.104 27.6093 28.1164 26.172 28.1102C26.1597 28.104 26.1288 28.0793 26.1165 28.067C26.1103 24.7363 26.1165 21.4054 26.1165 18.0808C26.1226 17.673 26.0486 17.2775 25.9623 16.8882C25.808 16.4927 25.6106 16.1157 25.3392 15.7944C25.1788 15.6028 24.9568 15.4792 24.7778 15.3124C24.5002 15.127 24.1733 15.0405 23.8588 14.954C23.6922 14.9416 23.5257 14.954 23.3715 14.8983C22.7114 14.8551 22.039 14.9107 21.4222 15.1641C20.9718 15.3804 20.5524 15.677 20.2563 16.091C19.769 16.6719 19.6086 17.4629 19.621 18.2044C19.621 21.5043 19.6271 24.8103 19.621 28.1102C18.1651 28.1226 16.7094 28.104 15.2536 28.1226C15.2289 24.9401 15.2536 21.7515 15.2413 18.569C15.2475 18.1611 15.2351 17.7533 15.266 17.3454C15.3462 17.1415 15.2906 16.9191 15.3523 16.7213C15.4633 15.9673 15.747 15.2505 16.0616 14.5646C16.3701 13.9652 16.7402 13.3905 17.2213 12.9147C17.5977 12.5315 17.9862 12.1298 18.4613 11.8641C19.3805 11.2215 20.4661 10.8322 21.5765 10.6777ZM73.2691 10.6406C73.8057 10.6283 74.3362 10.5232 74.8729 10.6097C75.1628 10.6468 75.4589 10.6406 75.7488 10.653C75.8043 11.1906 75.7611 11.7344 75.7735 12.272V14.4349C75.7735 14.5708 75.792 14.713 75.7365 14.8427C75.5945 14.7377 75.4033 14.7748 75.243 14.7315C74.589 14.6759 73.9167 14.7068 73.2999 14.954C72.5658 15.2074 71.9242 15.745 71.5664 16.4433C71.4616 16.5731 71.4616 16.7585 71.3444 16.882C71.1531 17.5742 71.1408 18.2972 71.1531 19.0078C71.1469 22.0482 71.1716 25.0823 71.1408 28.1226C69.7035 28.1041 68.2601 28.1226 66.8166 28.1103C66.8042 28.0979 66.7857 28.0732 66.7734 28.0609V18.1427C66.7549 17.7286 66.8474 17.327 66.8413 16.9191C66.94 16.7214 66.9153 16.4927 66.977 16.2888C67.2854 14.7254 68.1059 13.2485 69.3519 12.2412C69.5924 11.9693 69.9379 11.8395 70.2217 11.6233C71.1409 11.0609 72.2081 10.7889 73.2691 10.6406ZM9.33186 11.0052C10.7876 11.03 12.2434 10.9991 13.6992 11.0176C13.6992 16.6719 13.693 22.3199 13.6992 27.9681C13.6992 28.0237 13.6992 28.1349 13.6128 28.1164H9.34426C9.30718 27.1833 9.33803 26.244 9.32569 25.3109C9.33186 20.5465 9.32569 15.7758 9.33186 11.0052ZM55.0101 22.4745C55.3802 22.3323 55.738 22.147 56.1142 22.0173C56.6571 21.8071 57.1876 21.5538 57.7304 21.3437C58.8531 20.8247 60.0128 20.3921 61.1478 19.9038C61.4191 19.7555 61.7276 19.6876 61.9928 19.5269C62.2951 19.4095 62.5974 19.3044 62.8935 19.1684C63.1526 19.0139 63.4487 18.9521 63.7139 18.8162C64.0655 18.6741 64.4048 18.5134 64.7626 18.3837C65.1265 18.1797 65.5336 18.0809 65.8976 17.8831C65.9963 17.8151 66.1566 17.8336 66.2183 17.7162C66.1135 17.568 66.1689 17.3826 66.1135 17.2219C66.0332 16.9315 65.953 16.6472 65.8852 16.363C65.6077 15.504 65.2067 14.6821 64.6639 13.9653C64.0038 13.0075 63.097 12.235 62.0916 11.6665C61.4315 11.2648 60.6913 11.0362 59.9511 10.8384C59.4946 10.7828 59.0566 10.6222 58.594 10.6283C58.1745 10.5727 57.7427 10.548 57.3294 10.6222C56.5954 10.6345 55.8922 10.8137 55.1951 11.0177C53.9799 11.444 52.8264 12.0929 51.8949 12.9889C51.6173 13.2485 51.3891 13.5513 51.1239 13.817C50.7106 14.3484 50.3342 14.9108 50.0505 15.5164C49.6496 16.4248 49.2671 17.3764 49.2239 18.3837C49.0883 18.8657 49.1314 19.3724 49.1252 19.8668C49.1129 20.1819 49.1622 20.4909 49.2239 20.7937C49.2054 21.115 49.3288 21.4117 49.372 21.7206C49.4768 22.3757 49.7668 22.9812 50.032 23.5868C50.7599 25.0822 51.9072 26.38 53.3445 27.2266C54.2883 27.8074 55.337 28.2215 56.435 28.3759C57.3294 28.5181 58.2485 28.5428 59.1492 28.4254C59.4576 28.4501 59.7537 28.3141 60.0621 28.2956C61.376 27.9866 62.6652 27.4305 63.6584 26.4974C63.9545 26.2625 64.2321 25.9845 64.4665 25.6878C64.8613 25.2861 65.1451 24.798 65.4288 24.316C65.7002 23.803 65.9223 23.2592 66.0828 22.6969C65.9964 22.6598 65.8977 22.6722 65.8113 22.6722C64.3679 22.6785 62.9306 22.666 61.4872 22.6722C61.3515 22.6722 61.3515 22.8576 61.265 22.9318C61.0183 23.2902 60.7037 23.593 60.3706 23.8772C59.8895 24.2234 59.3219 24.4087 58.7606 24.5755C58.6126 24.5941 58.4707 24.5879 58.335 24.6436C57.9895 24.6682 57.6379 24.6559 57.2863 24.6497C56.8977 24.5756 56.5091 24.4891 56.1328 24.3655C55.553 24.0689 54.9854 23.729 54.5475 23.2469C54.4364 23.111 54.2576 23.006 54.2205 22.8267C54.3193 22.7835 54.4118 22.7155 54.5228 22.6969C54.7017 22.666 54.8373 22.5239 55.0101 22.4745ZM53.2335 19.3476C53.1472 19.1313 53.2273 18.878 53.215 18.6493C53.3138 18.3341 53.3446 18.0005 53.4617 17.6853C53.7578 16.987 54.1218 16.3011 54.6523 15.7511C54.899 15.5471 55.1087 15.3 55.3925 15.1455C55.6022 15.0342 55.8058 14.9106 56.0217 14.8118C56.4226 14.6944 56.8113 14.509 57.2308 14.509C57.6132 14.4163 58.008 14.4658 58.3966 14.4719C59.4144 14.6141 60.4384 15.0528 61.0984 15.8623C61.1663 16.023 60.938 16.0354 60.8455 16.0972C60.4446 16.3196 59.9943 16.4308 59.5933 16.6595C59.4144 16.6904 59.2602 16.8017 59.0875 16.8573C57.8106 17.4134 56.509 17.9015 55.2445 18.4825C54.566 18.7482 53.8936 19.0325 53.2335 19.3476ZM48.6379 3.45382C47.2871 3.44147 45.9361 3.45382 44.5852 3.44764C44.4865 3.46 44.3693 3.41675 44.2891 3.4909C44.3014 6.39529 44.2891 9.30586 44.2953 12.2102C44.2891 12.3153 44.3138 12.4204 44.2706 12.5192C44.1473 12.5007 44.0856 12.3833 43.993 12.3153C43.37 11.7777 42.673 11.3204 41.8957 11.0547C41.3714 10.8507 40.8225 10.7457 40.2673 10.6468C39.6381 10.6345 39.0027 10.6159 38.3673 10.653C38.2995 10.6715 38.2378 10.6901 38.17 10.6963C36.7574 10.894 35.4372 11.5552 34.3516 12.4636C33.7471 13.0321 33.1426 13.6254 32.717 14.3422C32.2173 15.0528 31.8965 15.8685 31.5881 16.6719C31.4462 17.1786 31.3043 17.6791 31.2426 18.1982C31.1254 18.9954 31.1748 19.8111 31.1871 20.6144C31.2179 20.8245 31.2858 21.0223 31.292 21.2324C31.403 21.9121 31.6004 22.5795 31.8717 23.216C32.1 23.8278 32.4701 24.384 32.8094 24.9401C33.0499 25.2491 33.2844 25.5704 33.5743 25.8423C34.0061 26.2687 34.4316 26.7322 34.9745 27.0288C35.616 27.517 36.3747 27.8075 37.115 28.0917C37.3864 28.1411 37.6393 28.2956 37.9169 28.3018C38.1513 28.3203 38.3672 28.4316 38.6017 28.4191C38.725 28.4068 38.8361 28.4933 38.9655 28.4809C39.5639 28.4995 40.1684 28.4995 40.7668 28.4809C40.8655 28.4809 40.9642 28.4377 41.069 28.4315C41.4823 28.4377 41.8647 28.277 42.2657 28.2214C42.79 28.0298 43.3514 27.9062 43.8386 27.622C44.5604 27.2883 45.2142 26.8187 45.8003 26.2872C46.5405 25.6446 47.1388 24.8412 47.583 23.9637C47.7742 23.5744 47.9901 23.1974 48.1135 22.7772C48.3479 22.1963 48.4527 21.5784 48.533 20.9666C48.6686 20.429 48.6255 19.8666 48.6378 19.3105C48.6379 14.027 48.6379 8.74352 48.6379 3.45382ZM44.2521 20.188C44.2151 20.8431 43.9684 21.4672 43.6784 22.0543C43.1911 22.975 42.3707 23.6795 41.4393 24.1244C41.2973 24.1986 41.1123 24.1925 41.0136 24.3283C40.8409 24.3283 40.6682 24.3346 40.5016 24.3964C39.9711 24.4087 39.4221 24.4582 38.904 24.3099C38.6819 24.2048 38.4352 24.1616 38.2131 24.0441C37.9355 23.8897 37.6209 23.7846 37.3927 23.5498C36.9609 23.247 36.6278 22.833 36.3255 22.4066C36.0849 21.9925 35.8444 21.5661 35.7333 21.0965C35.61 20.8493 35.6222 20.5712 35.5544 20.3117C35.5359 19.6505 35.4989 18.9708 35.6531 18.3281C35.7211 18.1241 35.7642 17.9079 35.8382 17.7039C36.0171 17.3763 36.1281 17.0118 36.3625 16.7152C36.4859 16.4557 36.7018 16.264 36.8746 16.0416C37.3372 15.5102 37.9726 15.1703 38.6141 14.9046C38.8546 14.849 39.089 14.7254 39.342 14.7254C39.854 14.5956 40.3844 14.7007 40.8903 14.7934C41.5565 15.0344 42.2166 15.3681 42.7347 15.8625C42.9259 16.0417 43.0678 16.2642 43.259 16.4434C44.0486 17.5061 44.4124 18.8718 44.2521 20.188ZM73.2321 25.9474H74.8482C74.8544 26.071 74.8544 26.1946 74.8482 26.3182C74.6632 26.3429 74.4781 26.312 74.2992 26.3367C74.2746 26.8929 74.2992 27.4428 74.287 27.999C74.1204 27.9866 73.9538 27.9866 73.7935 27.9928C73.7749 27.554 73.7811 27.1091 73.7872 26.6704C73.7872 26.553 73.8119 26.417 73.707 26.3367C73.5467 26.312 73.3863 26.3429 73.2259 26.3182C73.2197 26.1946 73.2197 26.071 73.2321 25.9474ZM75.1443 25.9536C75.3726 25.9473 75.6008 25.935 75.8291 25.9659C75.8168 26.1451 75.9647 26.2687 76.0079 26.4356C76.0696 26.6456 76.1621 26.8434 76.2238 27.0535C76.2732 27.1462 76.3595 27.2266 76.3287 27.344C76.4521 26.8619 76.6433 26.4047 76.8345 25.9536C77.0504 25.9473 77.2725 25.9412 77.4946 25.9536C77.5068 26.6147 77.4946 27.2883 77.4946 27.9496C77.3465 27.9619 77.1984 27.9619 77.0442 27.9496C77.0504 27.4861 77.0442 27.0226 77.0565 26.5653C77.0011 26.6148 76.9455 26.658 76.9023 26.7198C76.8221 27.14 76.6062 27.5232 76.5014 27.9434C76.378 27.962 76.2608 27.962 76.1375 27.9496C76.1004 27.7148 75.9338 27.5232 75.9338 27.2822C75.7673 27.0782 75.7611 26.7879 75.6316 26.5592C75.5453 26.7261 75.6131 26.9237 75.5946 27.103C75.57 27.3935 75.6254 27.6901 75.57 27.9805C75.4219 27.9805 75.2553 28.03 75.1382 27.9249C75.1567 27.2698 75.1382 26.6148 75.1443 25.9536Z" fill="#4B4B4B" stroke="#4B4B4B" stroke-width="0.0602391"/>
</svg>
